<mxfile host="Electron" modified="2023-04-17T01:46:50.049Z" agent="Mozilla/5.0 (Windows NT 10.0; Win64; x64) AppleWebKit/537.36 (KHTML, like Gecko) draw.io/21.1.2 Chrome/106.0.5249.199 Electron/21.4.3 Safari/537.36" etag="optu6K0aah9VnaYCkABX" version="21.1.2" type="device">
  <diagram id="JSLYW5las_3jaCacX6Xa" name="Page-1">
    <mxGraphModel dx="3401" dy="872" grid="1" gridSize="10" guides="1" tooltips="1" connect="1" arrows="1" fold="1" page="1" pageScale="1" pageWidth="850" pageHeight="1100" math="0" shadow="0">
      <root>
        <mxCell id="0" />
        <mxCell id="1" parent="0" />
        <mxCell id="J86y39Cw3nPgJy3DNBM7-64" style="edgeStyle=orthogonalEdgeStyle;rounded=0;orthogonalLoop=1;jettySize=auto;html=1;" parent="1" source="ujUrHDo3ct17JqZA6DmU-1" target="iy7l8Z3j97CfQDaK9TCk-17" edge="1">
          <mxGeometry relative="1" as="geometry" />
        </mxCell>
        <mxCell id="J86y39Cw3nPgJy3DNBM7-65" style="edgeStyle=orthogonalEdgeStyle;rounded=0;orthogonalLoop=1;jettySize=auto;html=1;" parent="1" source="ujUrHDo3ct17JqZA6DmU-1" target="ujUrHDo3ct17JqZA6DmU-11" edge="1">
          <mxGeometry relative="1" as="geometry" />
        </mxCell>
        <mxCell id="A3TY6-_EPjsaEJLGYLJC-16" style="edgeStyle=orthogonalEdgeStyle;rounded=0;orthogonalLoop=1;jettySize=auto;html=1;entryX=0;entryY=0.58;entryDx=0;entryDy=0;entryPerimeter=0;" edge="1" parent="1" source="ujUrHDo3ct17JqZA6DmU-1" target="iy7l8Z3j97CfQDaK9TCk-16">
          <mxGeometry relative="1" as="geometry" />
        </mxCell>
        <mxCell id="ujUrHDo3ct17JqZA6DmU-1" value="&lt;b&gt;Quản lý dịch vụ&lt;/b&gt;" style="strokeWidth=1;shadow=0;dashed=0;align=center;html=1;shape=mxgraph.mockup.containers.window;align=left;verticalAlign=top;spacingLeft=8;strokeColor2=#008cff;strokeColor3=#c4c4c4;fontColor=#666666;mainText=;fontSize=17;labelBackgroundColor=none;" parent="1" vertex="1">
          <mxGeometry x="60" y="30" width="750" height="440" as="geometry" />
        </mxCell>
        <mxCell id="ujUrHDo3ct17JqZA6DmU-8" value="Đặt phòng" style="strokeWidth=1;shadow=0;dashed=0;align=center;html=1;shape=mxgraph.mockup.buttons.button;strokeColor=#666666;fontColor=#ffffff;mainText=;buttonStyle=round;fontSize=17;fontStyle=1;fillColor=#006633;whiteSpace=wrap;" parent="1" vertex="1">
          <mxGeometry x="180" y="220" width="150" height="90" as="geometry" />
        </mxCell>
        <mxCell id="ujUrHDo3ct17JqZA6DmU-9" value="Nhập thông tin dịch vụ" style="strokeWidth=1;shadow=0;dashed=0;align=center;html=1;shape=mxgraph.mockup.buttons.button;strokeColor=#666666;fontColor=#ffffff;mainText=;buttonStyle=round;fontSize=17;fontStyle=1;fillColor=#006633;whiteSpace=wrap;" parent="1" vertex="1">
          <mxGeometry x="360" y="220" width="150" height="90" as="geometry" />
        </mxCell>
        <mxCell id="ujUrHDo3ct17JqZA6DmU-10" value="Trả phòng" style="strokeWidth=1;shadow=0;dashed=0;align=center;html=1;shape=mxgraph.mockup.buttons.button;strokeColor=#666666;fontColor=#ffffff;mainText=;buttonStyle=round;fontSize=17;fontStyle=1;fillColor=#006633;whiteSpace=wrap;" parent="1" vertex="1">
          <mxGeometry x="540" y="220" width="150" height="90" as="geometry" />
        </mxCell>
        <mxCell id="rDmMaY0uW623CmIvIKGu-4" style="edgeStyle=orthogonalEdgeStyle;rounded=0;orthogonalLoop=1;jettySize=auto;html=1;" parent="1" source="ujUrHDo3ct17JqZA6DmU-11" target="J86y39Cw3nPgJy3DNBM7-113" edge="1">
          <mxGeometry relative="1" as="geometry" />
        </mxCell>
        <mxCell id="ujUrHDo3ct17JqZA6DmU-11" value="&lt;b&gt;Quản lý dịch vụ&lt;/b&gt;" style="strokeWidth=1;shadow=0;dashed=0;align=center;html=1;shape=mxgraph.mockup.containers.window;align=left;verticalAlign=top;spacingLeft=8;strokeColor2=#008cff;strokeColor3=#c4c4c4;fontColor=#666666;mainText=;fontSize=17;labelBackgroundColor=none;" parent="1" vertex="1">
          <mxGeometry x="-800" y="30" width="750" height="440" as="geometry" />
        </mxCell>
        <mxCell id="ujUrHDo3ct17JqZA6DmU-30" value="Dạng thuê" style="text;html=1;strokeColor=none;fillColor=none;align=center;verticalAlign=middle;whiteSpace=wrap;rounded=0;fontStyle=1" parent="1" vertex="1">
          <mxGeometry x="-770" y="160" width="120" height="30" as="geometry" />
        </mxCell>
        <mxCell id="ujUrHDo3ct17JqZA6DmU-31" value="Giường đơn" style="strokeWidth=1;shadow=0;dashed=0;align=center;html=1;shape=mxgraph.mockup.forms.comboBox;strokeColor=#999999;fillColor=#ddeeff;align=left;fillColor2=#aaddff;mainText=;fontColor=#666666;fontSize=17;spacingLeft=3;" parent="1" vertex="1">
          <mxGeometry x="-640" y="160" width="150" height="30" as="geometry" />
        </mxCell>
        <mxCell id="ujUrHDo3ct17JqZA6DmU-124" style="edgeStyle=orthogonalEdgeStyle;rounded=0;orthogonalLoop=1;jettySize=auto;html=1;fontSize=29;" parent="1" edge="1">
          <mxGeometry relative="1" as="geometry">
            <Array as="points">
              <mxPoint x="-400" y="235" />
              <mxPoint x="-400" y="453" />
              <mxPoint x="-370" y="453" />
              <mxPoint x="-370" y="990" />
            </Array>
            <mxPoint x="-490" y="235" as="sourcePoint" />
          </mxGeometry>
        </mxCell>
        <mxCell id="ujUrHDo3ct17JqZA6DmU-40" value="Thông tin phòng" style="text;html=1;strokeColor=none;fillColor=none;align=center;verticalAlign=middle;whiteSpace=wrap;rounded=0;fontSize=29;fontStyle=1" parent="1" vertex="1">
          <mxGeometry x="-760" y="70" width="310" height="70" as="geometry" />
        </mxCell>
        <mxCell id="ujUrHDo3ct17JqZA6DmU-41" value="Thông tin khách hàng" style="text;html=1;strokeColor=none;fillColor=none;align=center;verticalAlign=middle;whiteSpace=wrap;rounded=0;fontSize=29;fontStyle=1" parent="1" vertex="1">
          <mxGeometry x="-400" y="70" width="310" height="70" as="geometry" />
        </mxCell>
        <mxCell id="ujUrHDo3ct17JqZA6DmU-43" value="Tên khách hàng" style="text;html=1;strokeColor=none;fillColor=none;align=center;verticalAlign=middle;whiteSpace=wrap;rounded=0;fontStyle=1" parent="1" vertex="1">
          <mxGeometry x="-399" y="160" width="120" height="30" as="geometry" />
        </mxCell>
        <mxCell id="ujUrHDo3ct17JqZA6DmU-44" value="" style="strokeWidth=1;shadow=0;dashed=0;align=center;html=1;shape=mxgraph.mockup.text.textBox;fontColor=#666666;align=left;fontSize=17;spacingLeft=4;spacingTop=-3;strokeColor=#666666;mainText=;fillColor=#FFFFFF;" parent="1" vertex="1">
          <mxGeometry x="-241" y="159" width="150" height="30" as="geometry" />
        </mxCell>
        <mxCell id="ujUrHDo3ct17JqZA6DmU-45" value="CMND/CCCD" style="text;html=1;strokeColor=none;fillColor=none;align=center;verticalAlign=middle;whiteSpace=wrap;rounded=0;fontStyle=1" parent="1" vertex="1">
          <mxGeometry x="-399" y="211" width="120" height="30" as="geometry" />
        </mxCell>
        <mxCell id="ujUrHDo3ct17JqZA6DmU-46" value="" style="strokeWidth=1;shadow=0;dashed=0;align=center;html=1;shape=mxgraph.mockup.text.textBox;fontColor=#666666;align=left;fontSize=17;spacingLeft=4;spacingTop=-3;strokeColor=#666666;mainText=;fillColor=#FFFFFF;" parent="1" vertex="1">
          <mxGeometry x="-240" y="210" width="150" height="30" as="geometry" />
        </mxCell>
        <mxCell id="ujUrHDo3ct17JqZA6DmU-47" value="Ngày rời đi" style="text;html=1;strokeColor=none;fillColor=none;align=center;verticalAlign=middle;whiteSpace=wrap;rounded=0;fontStyle=1" parent="1" vertex="1">
          <mxGeometry x="-400" y="310" width="120" height="30" as="geometry" />
        </mxCell>
        <mxCell id="ujUrHDo3ct17JqZA6DmU-117" style="edgeStyle=orthogonalEdgeStyle;rounded=0;orthogonalLoop=1;jettySize=auto;html=1;fontSize=29;exitX=1.017;exitY=0.608;exitDx=0;exitDy=0;exitPerimeter=0;" parent="1" target="ujUrHDo3ct17JqZA6DmU-63" edge="1">
          <mxGeometry relative="1" as="geometry">
            <Array as="points">
              <mxPoint x="-10" y="279" />
              <mxPoint x="-10" y="490" />
              <mxPoint x="-163" y="490" />
            </Array>
            <mxPoint x="-87.44999999999982" y="279.24" as="sourcePoint" />
          </mxGeometry>
        </mxCell>
        <mxCell id="ujUrHDo3ct17JqZA6DmU-61" value="Số lượng giường" style="text;html=1;strokeColor=none;fillColor=none;align=center;verticalAlign=middle;whiteSpace=wrap;rounded=0;fontStyle=1" parent="1" vertex="1">
          <mxGeometry x="-770" y="210" width="120" height="30" as="geometry" />
        </mxCell>
        <mxCell id="ujUrHDo3ct17JqZA6DmU-63" value="" style="strokeWidth=1;shadow=0;dashed=0;align=center;html=1;shape=mxgraph.mockup.forms.rrect;rSize=5;strokeColor=#999999;fillColor=#CCFFFF;fontSize=29;" parent="1" vertex="1">
          <mxGeometry x="-330" y="510" width="330" height="360.94" as="geometry" />
        </mxCell>
        <mxCell id="ujUrHDo3ct17JqZA6DmU-64" value="October 2014" style="strokeWidth=1;shadow=0;dashed=0;align=center;html=1;shape=mxgraph.mockup.forms.anchor;fontColor=#999999;" parent="ujUrHDo3ct17JqZA6DmU-63" vertex="1">
          <mxGeometry x="61.875" y="16.500114285714286" width="206.25" height="41.25028571428572" as="geometry" />
        </mxCell>
        <mxCell id="ujUrHDo3ct17JqZA6DmU-65" value="&lt;" style="strokeWidth=1;shadow=0;dashed=0;align=center;html=1;shape=mxgraph.mockup.forms.rrect;rSize=4;strokeColor=#999999;fontColor=#008cff;fontSize=19;fontStyle=1;" parent="ujUrHDo3ct17JqZA6DmU-63" vertex="1">
          <mxGeometry x="16.5" y="16.500114285714286" width="51.5625" height="41.25028571428572" as="geometry" />
        </mxCell>
        <mxCell id="ujUrHDo3ct17JqZA6DmU-66" value="&gt;" style="strokeWidth=1;shadow=0;dashed=0;align=center;html=1;shape=mxgraph.mockup.forms.rrect;rSize=4;strokeColor=#999999;fontColor=#008cff;fontSize=19;fontStyle=1;" parent="ujUrHDo3ct17JqZA6DmU-63" vertex="1">
          <mxGeometry x="261.9375" y="16.500114285714286" width="51.5625" height="41.25028571428572" as="geometry" />
        </mxCell>
        <mxCell id="ujUrHDo3ct17JqZA6DmU-67" value="Mo" style="strokeWidth=1;shadow=0;dashed=0;align=center;html=1;shape=mxgraph.mockup.forms.anchor;fontColor=#999999;" parent="ujUrHDo3ct17JqZA6DmU-63" vertex="1">
          <mxGeometry x="20.625" y="57.7504" width="41.25" height="41.25028571428572" as="geometry" />
        </mxCell>
        <mxCell id="ujUrHDo3ct17JqZA6DmU-68" value="Tu" style="strokeWidth=1;shadow=0;dashed=0;align=center;html=1;shape=mxgraph.mockup.forms.anchor;fontColor=#999999;" parent="ujUrHDo3ct17JqZA6DmU-63" vertex="1">
          <mxGeometry x="61.875" y="57.7504" width="41.25" height="41.25028571428572" as="geometry" />
        </mxCell>
        <mxCell id="ujUrHDo3ct17JqZA6DmU-69" value="We" style="strokeWidth=1;shadow=0;dashed=0;align=center;html=1;shape=mxgraph.mockup.forms.anchor;fontColor=#999999;" parent="ujUrHDo3ct17JqZA6DmU-63" vertex="1">
          <mxGeometry x="103.125" y="57.7504" width="41.25" height="41.25028571428572" as="geometry" />
        </mxCell>
        <mxCell id="ujUrHDo3ct17JqZA6DmU-70" value="Th" style="strokeWidth=1;shadow=0;dashed=0;align=center;html=1;shape=mxgraph.mockup.forms.anchor;fontColor=#999999;" parent="ujUrHDo3ct17JqZA6DmU-63" vertex="1">
          <mxGeometry x="144.375" y="57.7504" width="41.25" height="41.25028571428572" as="geometry" />
        </mxCell>
        <mxCell id="ujUrHDo3ct17JqZA6DmU-71" value="Fr" style="strokeWidth=1;shadow=0;dashed=0;align=center;html=1;shape=mxgraph.mockup.forms.anchor;fontColor=#999999;" parent="ujUrHDo3ct17JqZA6DmU-63" vertex="1">
          <mxGeometry x="185.625" y="57.7504" width="41.25" height="41.25028571428572" as="geometry" />
        </mxCell>
        <mxCell id="ujUrHDo3ct17JqZA6DmU-72" value="Sa" style="strokeWidth=1;shadow=0;dashed=0;align=center;html=1;shape=mxgraph.mockup.forms.anchor;fontColor=#999999;" parent="ujUrHDo3ct17JqZA6DmU-63" vertex="1">
          <mxGeometry x="226.875" y="57.7504" width="41.25" height="41.25028571428572" as="geometry" />
        </mxCell>
        <mxCell id="ujUrHDo3ct17JqZA6DmU-73" value="Su" style="strokeWidth=1;shadow=0;dashed=0;align=center;html=1;shape=mxgraph.mockup.forms.anchor;fontColor=#999999;" parent="ujUrHDo3ct17JqZA6DmU-63" vertex="1">
          <mxGeometry x="268.125" y="57.7504" width="41.25" height="41.25028571428572" as="geometry" />
        </mxCell>
        <mxCell id="ujUrHDo3ct17JqZA6DmU-74" value="1" style="strokeWidth=1;shadow=0;dashed=0;align=center;html=1;shape=mxgraph.mockup.forms.rrect;rSize=0;strokeColor=#999999;fontColor=#999999;" parent="ujUrHDo3ct17JqZA6DmU-63" vertex="1">
          <mxGeometry x="20.625" y="99.00068571428571" width="41.25" height="41.25028571428572" as="geometry" />
        </mxCell>
        <mxCell id="ujUrHDo3ct17JqZA6DmU-75" value="2" style="strokeWidth=1;shadow=0;dashed=0;align=center;html=1;shape=mxgraph.mockup.forms.rrect;rSize=0;strokeColor=#999999;fontColor=#999999;" parent="ujUrHDo3ct17JqZA6DmU-63" vertex="1">
          <mxGeometry x="61.875" y="99.00068571428571" width="41.25" height="41.25028571428572" as="geometry" />
        </mxCell>
        <mxCell id="ujUrHDo3ct17JqZA6DmU-76" value="3" style="strokeWidth=1;shadow=0;dashed=0;align=center;html=1;shape=mxgraph.mockup.forms.rrect;rSize=0;strokeColor=#999999;fontColor=#999999;" parent="ujUrHDo3ct17JqZA6DmU-63" vertex="1">
          <mxGeometry x="103.125" y="99.00068571428571" width="41.25" height="41.25028571428572" as="geometry" />
        </mxCell>
        <mxCell id="ujUrHDo3ct17JqZA6DmU-77" value="4" style="strokeWidth=1;shadow=0;dashed=0;align=center;html=1;shape=mxgraph.mockup.forms.rrect;rSize=0;strokeColor=#999999;fontColor=#999999;" parent="ujUrHDo3ct17JqZA6DmU-63" vertex="1">
          <mxGeometry x="144.375" y="99.00068571428571" width="41.25" height="41.25028571428572" as="geometry" />
        </mxCell>
        <mxCell id="ujUrHDo3ct17JqZA6DmU-78" value="5" style="strokeWidth=1;shadow=0;dashed=0;align=center;html=1;shape=mxgraph.mockup.forms.rrect;rSize=0;strokeColor=#999999;fontColor=#999999;" parent="ujUrHDo3ct17JqZA6DmU-63" vertex="1">
          <mxGeometry x="185.625" y="99.00068571428571" width="41.25" height="41.25028571428572" as="geometry" />
        </mxCell>
        <mxCell id="ujUrHDo3ct17JqZA6DmU-79" value="6" style="strokeWidth=1;shadow=0;dashed=0;align=center;html=1;shape=mxgraph.mockup.forms.rrect;rSize=0;strokeColor=#999999;fontColor=#999999;" parent="ujUrHDo3ct17JqZA6DmU-63" vertex="1">
          <mxGeometry x="226.875" y="99.00068571428571" width="41.25" height="41.25028571428572" as="geometry" />
        </mxCell>
        <mxCell id="ujUrHDo3ct17JqZA6DmU-80" value="7" style="strokeWidth=1;shadow=0;dashed=0;align=center;html=1;shape=mxgraph.mockup.forms.rrect;rSize=0;strokeColor=#999999;fontColor=#999999;" parent="ujUrHDo3ct17JqZA6DmU-63" vertex="1">
          <mxGeometry x="268.125" y="99.00068571428571" width="41.25" height="41.25028571428572" as="geometry" />
        </mxCell>
        <mxCell id="ujUrHDo3ct17JqZA6DmU-81" value="8" style="strokeWidth=1;shadow=0;dashed=0;align=center;html=1;shape=mxgraph.mockup.forms.rrect;rSize=0;strokeColor=#999999;fontColor=#999999;" parent="ujUrHDo3ct17JqZA6DmU-63" vertex="1">
          <mxGeometry x="20.625" y="140.25097142857143" width="41.25" height="41.25028571428572" as="geometry" />
        </mxCell>
        <mxCell id="ujUrHDo3ct17JqZA6DmU-82" value="9" style="strokeWidth=1;shadow=0;dashed=0;align=center;html=1;shape=mxgraph.mockup.forms.rrect;rSize=0;strokeColor=#999999;fontColor=#999999;" parent="ujUrHDo3ct17JqZA6DmU-63" vertex="1">
          <mxGeometry x="61.875" y="140.25097142857143" width="41.25" height="41.25028571428572" as="geometry" />
        </mxCell>
        <mxCell id="ujUrHDo3ct17JqZA6DmU-83" value="10" style="strokeWidth=1;shadow=0;dashed=0;align=center;html=1;shape=mxgraph.mockup.forms.rrect;rSize=0;strokeColor=#999999;fontColor=#999999;" parent="ujUrHDo3ct17JqZA6DmU-63" vertex="1">
          <mxGeometry x="103.125" y="140.25097142857143" width="41.25" height="41.25028571428572" as="geometry" />
        </mxCell>
        <mxCell id="ujUrHDo3ct17JqZA6DmU-84" value="11" style="strokeWidth=1;shadow=0;dashed=0;align=center;html=1;shape=mxgraph.mockup.forms.rrect;rSize=0;strokeColor=#999999;fontColor=#999999;" parent="ujUrHDo3ct17JqZA6DmU-63" vertex="1">
          <mxGeometry x="144.375" y="140.25097142857143" width="41.25" height="41.25028571428572" as="geometry" />
        </mxCell>
        <mxCell id="ujUrHDo3ct17JqZA6DmU-85" value="12" style="strokeWidth=1;shadow=0;dashed=0;align=center;html=1;shape=mxgraph.mockup.forms.rrect;rSize=0;strokeColor=#999999;fontColor=#999999;" parent="ujUrHDo3ct17JqZA6DmU-63" vertex="1">
          <mxGeometry x="185.625" y="140.25097142857143" width="41.25" height="41.25028571428572" as="geometry" />
        </mxCell>
        <mxCell id="ujUrHDo3ct17JqZA6DmU-86" value="13" style="strokeWidth=1;shadow=0;dashed=0;align=center;html=1;shape=mxgraph.mockup.forms.rrect;rSize=0;strokeColor=#999999;fontColor=#999999;" parent="ujUrHDo3ct17JqZA6DmU-63" vertex="1">
          <mxGeometry x="226.875" y="140.25097142857143" width="41.25" height="41.25028571428572" as="geometry" />
        </mxCell>
        <mxCell id="ujUrHDo3ct17JqZA6DmU-87" value="14" style="strokeWidth=1;shadow=0;dashed=0;align=center;html=1;shape=mxgraph.mockup.forms.rrect;rSize=0;strokeColor=#999999;fontColor=#999999;" parent="ujUrHDo3ct17JqZA6DmU-63" vertex="1">
          <mxGeometry x="268.125" y="140.25097142857143" width="41.25" height="41.25028571428572" as="geometry" />
        </mxCell>
        <mxCell id="ujUrHDo3ct17JqZA6DmU-88" value="15" style="strokeWidth=1;shadow=0;dashed=0;align=center;html=1;shape=mxgraph.mockup.forms.rrect;rSize=0;strokeColor=#999999;fontColor=#999999;" parent="ujUrHDo3ct17JqZA6DmU-63" vertex="1">
          <mxGeometry x="20.625" y="181.50125714285716" width="41.25" height="41.25028571428572" as="geometry" />
        </mxCell>
        <mxCell id="ujUrHDo3ct17JqZA6DmU-89" value="16" style="strokeWidth=1;shadow=0;dashed=0;align=center;html=1;shape=mxgraph.mockup.forms.rrect;rSize=0;strokeColor=#999999;fontColor=#999999;" parent="ujUrHDo3ct17JqZA6DmU-63" vertex="1">
          <mxGeometry x="61.875" y="181.50125714285716" width="41.25" height="41.25028571428572" as="geometry" />
        </mxCell>
        <mxCell id="ujUrHDo3ct17JqZA6DmU-90" value="17" style="strokeWidth=1;shadow=0;dashed=0;align=center;html=1;shape=mxgraph.mockup.forms.rrect;rSize=0;strokeColor=#999999;fontColor=#999999;" parent="ujUrHDo3ct17JqZA6DmU-63" vertex="1">
          <mxGeometry x="103.125" y="181.50125714285716" width="41.25" height="41.25028571428572" as="geometry" />
        </mxCell>
        <mxCell id="ujUrHDo3ct17JqZA6DmU-91" value="18" style="strokeWidth=1;shadow=0;dashed=0;align=center;html=1;shape=mxgraph.mockup.forms.rrect;rSize=0;strokeColor=#999999;fontColor=#999999;" parent="ujUrHDo3ct17JqZA6DmU-63" vertex="1">
          <mxGeometry x="144.375" y="181.50125714285716" width="41.25" height="41.25028571428572" as="geometry" />
        </mxCell>
        <mxCell id="ujUrHDo3ct17JqZA6DmU-92" value="19" style="strokeWidth=1;shadow=0;dashed=0;align=center;html=1;shape=mxgraph.mockup.forms.rrect;rSize=0;strokeColor=#999999;fontColor=#999999;" parent="ujUrHDo3ct17JqZA6DmU-63" vertex="1">
          <mxGeometry x="185.625" y="181.50125714285716" width="41.25" height="41.25028571428572" as="geometry" />
        </mxCell>
        <mxCell id="ujUrHDo3ct17JqZA6DmU-93" value="20" style="strokeWidth=1;shadow=0;dashed=0;align=center;html=1;shape=mxgraph.mockup.forms.rrect;rSize=0;strokeColor=#999999;fontColor=#999999;" parent="ujUrHDo3ct17JqZA6DmU-63" vertex="1">
          <mxGeometry x="226.875" y="181.50125714285716" width="41.25" height="41.25028571428572" as="geometry" />
        </mxCell>
        <mxCell id="ujUrHDo3ct17JqZA6DmU-94" value="21" style="strokeWidth=1;shadow=0;dashed=0;align=center;html=1;shape=mxgraph.mockup.forms.rrect;rSize=0;strokeColor=#999999;fontColor=#999999;" parent="ujUrHDo3ct17JqZA6DmU-63" vertex="1">
          <mxGeometry x="268.125" y="181.50125714285716" width="41.25" height="41.25028571428572" as="geometry" />
        </mxCell>
        <mxCell id="ujUrHDo3ct17JqZA6DmU-95" value="22" style="strokeWidth=1;shadow=0;dashed=0;align=center;html=1;shape=mxgraph.mockup.forms.rrect;rSize=0;strokeColor=#999999;fontColor=#999999;" parent="ujUrHDo3ct17JqZA6DmU-63" vertex="1">
          <mxGeometry x="20.625" y="222.75154285714285" width="41.25" height="41.25028571428572" as="geometry" />
        </mxCell>
        <mxCell id="ujUrHDo3ct17JqZA6DmU-96" value="23" style="strokeWidth=1;shadow=0;dashed=0;align=center;html=1;shape=mxgraph.mockup.forms.rrect;rSize=0;strokeColor=#999999;fontColor=#999999;" parent="ujUrHDo3ct17JqZA6DmU-63" vertex="1">
          <mxGeometry x="61.875" y="222.75154285714285" width="41.25" height="41.25028571428572" as="geometry" />
        </mxCell>
        <mxCell id="ujUrHDo3ct17JqZA6DmU-97" value="25" style="strokeWidth=1;shadow=0;dashed=0;align=center;html=1;shape=mxgraph.mockup.forms.rrect;rSize=0;strokeColor=#999999;fontColor=#999999;" parent="ujUrHDo3ct17JqZA6DmU-63" vertex="1">
          <mxGeometry x="144.375" y="222.75154285714285" width="41.25" height="41.25028571428572" as="geometry" />
        </mxCell>
        <mxCell id="ujUrHDo3ct17JqZA6DmU-98" value="26" style="strokeWidth=1;shadow=0;dashed=0;align=center;html=1;shape=mxgraph.mockup.forms.rrect;rSize=0;strokeColor=#999999;fontColor=#999999;" parent="ujUrHDo3ct17JqZA6DmU-63" vertex="1">
          <mxGeometry x="185.625" y="222.75154285714285" width="41.25" height="41.25028571428572" as="geometry" />
        </mxCell>
        <mxCell id="ujUrHDo3ct17JqZA6DmU-99" value="27" style="strokeWidth=1;shadow=0;dashed=0;align=center;html=1;shape=mxgraph.mockup.forms.rrect;rSize=0;strokeColor=#999999;fontColor=#999999;" parent="ujUrHDo3ct17JqZA6DmU-63" vertex="1">
          <mxGeometry x="226.875" y="222.75154285714285" width="41.25" height="41.25028571428572" as="geometry" />
        </mxCell>
        <mxCell id="ujUrHDo3ct17JqZA6DmU-100" value="28" style="strokeWidth=1;shadow=0;dashed=0;align=center;html=1;shape=mxgraph.mockup.forms.rrect;rSize=0;strokeColor=#999999;fontColor=#999999;" parent="ujUrHDo3ct17JqZA6DmU-63" vertex="1">
          <mxGeometry x="268.125" y="222.75154285714285" width="41.25" height="41.25028571428572" as="geometry" />
        </mxCell>
        <mxCell id="ujUrHDo3ct17JqZA6DmU-101" value="29" style="strokeWidth=1;shadow=0;dashed=0;align=center;html=1;shape=mxgraph.mockup.forms.rrect;rSize=0;strokeColor=#999999;fontColor=#999999;" parent="ujUrHDo3ct17JqZA6DmU-63" vertex="1">
          <mxGeometry x="20.625" y="264.0018285714286" width="41.25" height="41.25028571428572" as="geometry" />
        </mxCell>
        <mxCell id="ujUrHDo3ct17JqZA6DmU-102" value="30" style="strokeWidth=1;shadow=0;dashed=0;align=center;html=1;shape=mxgraph.mockup.forms.rrect;rSize=0;strokeColor=#999999;fontColor=#999999;" parent="ujUrHDo3ct17JqZA6DmU-63" vertex="1">
          <mxGeometry x="61.875" y="264.0018285714286" width="41.25" height="41.25028571428572" as="geometry" />
        </mxCell>
        <mxCell id="ujUrHDo3ct17JqZA6DmU-103" value="31" style="strokeWidth=1;shadow=0;dashed=0;align=center;html=1;shape=mxgraph.mockup.forms.rrect;rSize=0;strokeColor=#999999;fontColor=#999999;" parent="ujUrHDo3ct17JqZA6DmU-63" vertex="1">
          <mxGeometry x="103.125" y="264.0018285714286" width="41.25" height="41.25028571428572" as="geometry" />
        </mxCell>
        <mxCell id="ujUrHDo3ct17JqZA6DmU-104" value="1" style="strokeWidth=1;shadow=0;dashed=0;align=center;html=1;shape=mxgraph.mockup.forms.rrect;rSize=0;strokeColor=#999999;fontColor=#999999;fillColor=#ddeeff;" parent="ujUrHDo3ct17JqZA6DmU-63" vertex="1">
          <mxGeometry x="144.375" y="264.0018285714286" width="41.25" height="41.25028571428572" as="geometry" />
        </mxCell>
        <mxCell id="ujUrHDo3ct17JqZA6DmU-105" value="2" style="strokeWidth=1;shadow=0;dashed=0;align=center;html=1;shape=mxgraph.mockup.forms.rrect;rSize=0;strokeColor=#999999;fontColor=#999999;fillColor=#ddeeff;" parent="ujUrHDo3ct17JqZA6DmU-63" vertex="1">
          <mxGeometry x="185.625" y="264.0018285714286" width="41.25" height="41.25028571428572" as="geometry" />
        </mxCell>
        <mxCell id="ujUrHDo3ct17JqZA6DmU-106" value="3" style="strokeWidth=1;shadow=0;dashed=0;align=center;html=1;shape=mxgraph.mockup.forms.rrect;rSize=0;strokeColor=#999999;fontColor=#999999;fillColor=#ddeeff;" parent="ujUrHDo3ct17JqZA6DmU-63" vertex="1">
          <mxGeometry x="226.875" y="264.0018285714286" width="41.25" height="41.25028571428572" as="geometry" />
        </mxCell>
        <mxCell id="ujUrHDo3ct17JqZA6DmU-107" value="4" style="strokeWidth=1;shadow=0;dashed=0;align=center;html=1;shape=mxgraph.mockup.forms.rrect;rSize=0;strokeColor=#999999;fontColor=#999999;fillColor=#ddeeff;" parent="ujUrHDo3ct17JqZA6DmU-63" vertex="1">
          <mxGeometry x="268.125" y="264.0018285714286" width="41.25" height="41.25028571428572" as="geometry" />
        </mxCell>
        <mxCell id="ujUrHDo3ct17JqZA6DmU-108" value="5" style="strokeWidth=1;shadow=0;dashed=0;align=center;html=1;shape=mxgraph.mockup.forms.rrect;rSize=0;strokeColor=#999999;fontColor=#999999;fillColor=#99FF99;" parent="ujUrHDo3ct17JqZA6DmU-63" vertex="1">
          <mxGeometry x="20.625" y="305.2521142857143" width="41.25" height="41.25028571428572" as="geometry" />
        </mxCell>
        <mxCell id="ujUrHDo3ct17JqZA6DmU-109" value="6" style="strokeWidth=1;shadow=0;dashed=0;align=center;html=1;shape=mxgraph.mockup.forms.rrect;rSize=0;strokeColor=#999999;fontColor=#999999;fillColor=#99FF99;" parent="ujUrHDo3ct17JqZA6DmU-63" vertex="1">
          <mxGeometry x="61.875" y="305.2521142857143" width="41.25" height="41.25028571428572" as="geometry" />
        </mxCell>
        <mxCell id="ujUrHDo3ct17JqZA6DmU-110" value="7" style="strokeWidth=1;shadow=0;dashed=0;align=center;html=1;shape=mxgraph.mockup.forms.rrect;rSize=0;strokeColor=#999999;fontColor=#999999;fillColor=#99FF99;" parent="ujUrHDo3ct17JqZA6DmU-63" vertex="1">
          <mxGeometry x="103.125" y="305.2521142857143" width="41.25" height="41.25028571428572" as="geometry" />
        </mxCell>
        <mxCell id="ujUrHDo3ct17JqZA6DmU-111" value="8" style="strokeWidth=1;shadow=0;dashed=0;align=center;html=1;shape=mxgraph.mockup.forms.rrect;rSize=0;strokeColor=#999999;fontColor=#999999;fillColor=#99FF99;" parent="ujUrHDo3ct17JqZA6DmU-63" vertex="1">
          <mxGeometry x="144.375" y="305.2521142857143" width="41.25" height="41.25028571428572" as="geometry" />
        </mxCell>
        <mxCell id="ujUrHDo3ct17JqZA6DmU-112" value="9" style="strokeWidth=1;shadow=0;dashed=0;align=center;html=1;shape=mxgraph.mockup.forms.rrect;rSize=0;strokeColor=#999999;fontColor=#999999;fillColor=#ddeeff;" parent="ujUrHDo3ct17JqZA6DmU-63" vertex="1">
          <mxGeometry x="185.625" y="305.2521142857143" width="41.25" height="41.25028571428572" as="geometry" />
        </mxCell>
        <mxCell id="ujUrHDo3ct17JqZA6DmU-113" value="10" style="strokeWidth=1;shadow=0;dashed=0;align=center;html=1;shape=mxgraph.mockup.forms.rrect;rSize=0;strokeColor=#999999;fontColor=#999999;fillColor=#ddeeff;" parent="ujUrHDo3ct17JqZA6DmU-63" vertex="1">
          <mxGeometry x="226.875" y="305.2521142857143" width="41.25" height="41.25028571428572" as="geometry" />
        </mxCell>
        <mxCell id="ujUrHDo3ct17JqZA6DmU-114" value="11" style="strokeWidth=1;shadow=0;dashed=0;align=center;html=1;shape=mxgraph.mockup.forms.rrect;rSize=0;strokeColor=#999999;fontColor=#999999;fillColor=#ddeeff;" parent="ujUrHDo3ct17JqZA6DmU-63" vertex="1">
          <mxGeometry x="268.125" y="305.2521142857143" width="41.25" height="41.25028571428572" as="geometry" />
        </mxCell>
        <mxCell id="ujUrHDo3ct17JqZA6DmU-115" value="24" style="strokeWidth=1;shadow=0;dashed=0;align=center;html=1;shape=mxgraph.mockup.forms.rrect;rSize=0;strokeColor=#000000;fontColor=#ffffff;strokeWidth=2;fillColor=#00CC00;" parent="ujUrHDo3ct17JqZA6DmU-63" vertex="1">
          <mxGeometry x="103.125" y="222.75154285714285" width="41.25" height="41.25028571428572" as="geometry" />
        </mxCell>
        <mxCell id="O6KozVIABjtlEsWUxaVl-13" value="1" style="strokeWidth=1;shadow=0;dashed=0;align=center;html=1;shape=mxgraph.mockup.forms.rrect;rSize=0;strokeColor=#999999;fontColor=#999999;fillColor=#99FF99;" parent="ujUrHDo3ct17JqZA6DmU-63" vertex="1">
          <mxGeometry x="144.375" y="264.00182857142863" width="41.25" height="41.25028571428572" as="geometry" />
        </mxCell>
        <mxCell id="O6KozVIABjtlEsWUxaVl-14" value="3" style="strokeWidth=1;shadow=0;dashed=0;align=center;html=1;shape=mxgraph.mockup.forms.rrect;rSize=0;strokeColor=#999999;fontColor=#999999;fillColor=#99FF99;" parent="ujUrHDo3ct17JqZA6DmU-63" vertex="1">
          <mxGeometry x="226.875" y="264.00182857142863" width="41.25" height="41.25028571428572" as="geometry" />
        </mxCell>
        <mxCell id="O6KozVIABjtlEsWUxaVl-15" value="2" style="strokeWidth=1;shadow=0;dashed=0;align=center;html=1;shape=mxgraph.mockup.forms.rrect;rSize=0;strokeColor=#999999;fontColor=#999999;fillColor=#99FF99;" parent="ujUrHDo3ct17JqZA6DmU-63" vertex="1">
          <mxGeometry x="185.625" y="264.00182857142863" width="41.25" height="41.25028571428572" as="geometry" />
        </mxCell>
        <mxCell id="O6KozVIABjtlEsWUxaVl-16" value="4" style="strokeWidth=1;shadow=0;dashed=0;align=center;html=1;shape=mxgraph.mockup.forms.rrect;rSize=0;strokeColor=#999999;fontColor=#999999;fillColor=#99FF99;" parent="ujUrHDo3ct17JqZA6DmU-63" vertex="1">
          <mxGeometry x="268.125" y="264.00182857142863" width="41.25" height="41.25028571428572" as="geometry" />
        </mxCell>
        <mxCell id="O6KozVIABjtlEsWUxaVl-17" value="11" style="strokeWidth=1;shadow=0;dashed=0;align=center;html=1;shape=mxgraph.mockup.forms.rrect;rSize=0;strokeColor=#999999;fontColor=#999999;fillColor=#99FF99;" parent="ujUrHDo3ct17JqZA6DmU-63" vertex="1">
          <mxGeometry x="268.125" y="305.25211428571424" width="41.25" height="41.25028571428572" as="geometry" />
        </mxCell>
        <mxCell id="O6KozVIABjtlEsWUxaVl-18" value="10" style="strokeWidth=1;shadow=0;dashed=0;align=center;html=1;shape=mxgraph.mockup.forms.rrect;rSize=0;strokeColor=#999999;fontColor=#999999;fillColor=#99FF99;" parent="ujUrHDo3ct17JqZA6DmU-63" vertex="1">
          <mxGeometry x="226.875" y="305.25211428571424" width="41.25" height="41.25028571428572" as="geometry" />
        </mxCell>
        <mxCell id="O6KozVIABjtlEsWUxaVl-19" value="9" style="strokeWidth=1;shadow=0;dashed=0;align=center;html=1;shape=mxgraph.mockup.forms.rrect;rSize=0;strokeColor=#999999;fontColor=#999999;fillColor=#99FF99;" parent="ujUrHDo3ct17JqZA6DmU-63" vertex="1">
          <mxGeometry x="185.625" y="305.25211428571424" width="41.25" height="41.25028571428572" as="geometry" />
        </mxCell>
        <mxCell id="ujUrHDo3ct17JqZA6DmU-132" value="" style="strokeWidth=1;shadow=0;dashed=0;align=center;html=1;shape=mxgraph.mockup.forms.spinner;strokeColor=#999999;spinLayout=right;spinStyle=normal;adjStyle=triangle;fillColor=#aaddff;fontSize=17;fontColor=#666666;mainText=;html=1;overflow=fill;" parent="1" vertex="1">
          <mxGeometry x="-640" y="210" width="150" height="36" as="geometry" />
        </mxCell>
        <mxCell id="iy7l8Z3j97CfQDaK9TCk-1" value="QUẢN LÝ KHÁCH SẠN &amp;lt;TÊN KHÁCH SẠN&amp;gt;" style="text;html=1;strokeColor=none;fillColor=none;align=center;verticalAlign=middle;whiteSpace=wrap;rounded=0;fontSize=18;" parent="1" vertex="1">
          <mxGeometry x="180" y="80" width="510" height="90" as="geometry" />
        </mxCell>
        <mxCell id="iy7l8Z3j97CfQDaK9TCk-15" value="Thoát" style="strokeWidth=1;shadow=0;dashed=0;align=center;html=1;shape=mxgraph.mockup.buttons.button;strokeColor=#666666;fontColor=#ffffff;mainText=;buttonStyle=round;fontSize=17;fontStyle=1;fillColor=#006633;whiteSpace=wrap;" parent="1" vertex="1">
          <mxGeometry x="-230" y="380" width="140" height="40" as="geometry" />
        </mxCell>
        <mxCell id="J86y39Cw3nPgJy3DNBM7-62" style="edgeStyle=orthogonalEdgeStyle;rounded=0;orthogonalLoop=1;jettySize=auto;html=1;" parent="1" source="iy7l8Z3j97CfQDaK9TCk-16" target="J86y39Cw3nPgJy3DNBM7-3" edge="1">
          <mxGeometry relative="1" as="geometry" />
        </mxCell>
        <mxCell id="iy7l8Z3j97CfQDaK9TCk-16" value="Quản lý dịch vụ" style="strokeWidth=1;shadow=0;dashed=0;align=center;html=1;shape=mxgraph.mockup.containers.window;align=left;verticalAlign=top;spacingLeft=8;strokeColor2=#008cff;strokeColor3=#c4c4c4;fontColor=#666666;mainText=;fontSize=17;labelBackgroundColor=none;" parent="1" vertex="1">
          <mxGeometry x="900" y="29.5" width="750" height="380.5" as="geometry" />
        </mxCell>
        <mxCell id="WSn2ks0rtRTlL89xFY6x-6" value="Đặt phòng" style="strokeWidth=1;shadow=0;dashed=0;align=center;html=1;shape=mxgraph.mockup.buttons.button;strokeColor=#666666;fontColor=#ffffff;mainText=;buttonStyle=round;fontSize=17;fontStyle=1;fillColor=#006633;whiteSpace=wrap;" parent="1" vertex="1">
          <mxGeometry x="-390" y="380" width="140" height="40" as="geometry" />
        </mxCell>
        <mxCell id="WSn2ks0rtRTlL89xFY6x-7" value="Số phòng" style="text;html=1;strokeColor=none;fillColor=none;align=center;verticalAlign=middle;whiteSpace=wrap;rounded=0;fontStyle=1" parent="1" vertex="1">
          <mxGeometry x="940" y="174.75" width="120" height="30" as="geometry" />
        </mxCell>
        <mxCell id="WSn2ks0rtRTlL89xFY6x-8" value="" style="strokeWidth=1;shadow=0;dashed=0;align=center;html=1;shape=mxgraph.mockup.text.textBox;fontColor=#666666;align=left;fontSize=17;spacingLeft=4;spacingTop=-3;strokeColor=#666666;mainText=;fillColor=#FFFFFF;" parent="1" vertex="1">
          <mxGeometry x="1080" y="175.75" width="150" height="30" as="geometry" />
        </mxCell>
        <mxCell id="WSn2ks0rtRTlL89xFY6x-9" value="Đặt dịch vụ" style="text;html=1;strokeColor=none;fillColor=none;align=center;verticalAlign=middle;whiteSpace=wrap;rounded=0;fontSize=29;fontStyle=1" parent="1" vertex="1">
          <mxGeometry x="1130" y="70" width="310" height="40" as="geometry" />
        </mxCell>
        <mxCell id="WSn2ks0rtRTlL89xFY6x-10" value="Nhân Viên PV" style="text;html=1;strokeColor=none;fillColor=none;align=center;verticalAlign=middle;whiteSpace=wrap;rounded=0;fontStyle=1" parent="1" vertex="1">
          <mxGeometry x="1320" y="234.75" width="120" height="30" as="geometry" />
        </mxCell>
        <mxCell id="VkYrBGM2DWGojtH8OoqM-132" value="" style="group;fillColor=#006633;" parent="1" vertex="1" connectable="0">
          <mxGeometry x="50" y="640" width="760" height="440" as="geometry" />
        </mxCell>
        <mxCell id="iy7l8Z3j97CfQDaK9TCk-17" value="Quản lý dịch vụ" style="strokeWidth=1;shadow=0;dashed=0;align=center;html=1;shape=mxgraph.mockup.containers.window;align=left;verticalAlign=top;spacingLeft=8;strokeColor2=#008cff;strokeColor3=#c4c4c4;fontColor=#666666;mainText=;fontSize=17;labelBackgroundColor=none;fontStyle=1" parent="VkYrBGM2DWGojtH8OoqM-132" vertex="1">
          <mxGeometry x="10" width="750" height="440" as="geometry" />
        </mxCell>
        <mxCell id="WSn2ks0rtRTlL89xFY6x-16" value="Trả phòng" style="text;html=1;strokeColor=none;fillColor=none;align=center;verticalAlign=middle;whiteSpace=wrap;rounded=0;fontSize=29;fontStyle=1" parent="VkYrBGM2DWGojtH8OoqM-132" vertex="1">
          <mxGeometry x="215" y="40" width="330" height="50" as="geometry" />
        </mxCell>
        <mxCell id="WSn2ks0rtRTlL89xFY6x-17" value="Số phòng" style="text;html=1;strokeColor=none;fillColor=none;align=center;verticalAlign=middle;whiteSpace=wrap;rounded=0;fontStyle=1" parent="VkYrBGM2DWGojtH8OoqM-132" vertex="1">
          <mxGeometry x="40" y="97" width="120" height="25" as="geometry" />
        </mxCell>
        <mxCell id="VkYrBGM2DWGojtH8OoqM-6" value="Tên khách hàng" style="text;html=1;strokeColor=none;fillColor=none;align=center;verticalAlign=middle;whiteSpace=wrap;rounded=0;fontStyle=1" parent="VkYrBGM2DWGojtH8OoqM-132" vertex="1">
          <mxGeometry x="40" y="133" width="120" height="25" as="geometry" />
        </mxCell>
        <mxCell id="VkYrBGM2DWGojtH8OoqM-7" value="" style="strokeWidth=1;shadow=0;dashed=0;align=center;html=1;shape=mxgraph.mockup.text.textBox;align=left;fontSize=17;spacingLeft=4;spacingTop=-3;strokeColor=#36393d;mainText=;fillColor=#eeeeee;" parent="VkYrBGM2DWGojtH8OoqM-132" vertex="1">
          <mxGeometry x="202" y="170" width="150" height="25" as="geometry" />
        </mxCell>
        <mxCell id="VkYrBGM2DWGojtH8OoqM-8" value="Ngày rời đi" style="text;html=1;strokeColor=none;fillColor=none;align=center;verticalAlign=middle;whiteSpace=wrap;rounded=0;fontStyle=1" parent="VkYrBGM2DWGojtH8OoqM-132" vertex="1">
          <mxGeometry x="420" y="97" width="120" height="25" as="geometry" />
        </mxCell>
        <mxCell id="VkYrBGM2DWGojtH8OoqM-9" value="&amp;lt;Ngày hệ thống&amp;gt;" style="strokeWidth=1;shadow=0;dashed=0;align=center;html=1;shape=mxgraph.mockup.text.textBox;align=left;fontSize=17;spacingLeft=4;spacingTop=-3;strokeColor=#36393d;mainText=;fillColor=#eeeeee;" parent="VkYrBGM2DWGojtH8OoqM-132" vertex="1">
          <mxGeometry x="569" y="97" width="150" height="25" as="geometry" />
        </mxCell>
        <mxCell id="VkYrBGM2DWGojtH8OoqM-126" value="" style="rounded=0;whiteSpace=wrap;html=1;align=left;fillColor=#eeeeee;strokeColor=#36393d;" parent="VkYrBGM2DWGojtH8OoqM-132" vertex="1">
          <mxGeometry x="571" y="133" width="147" height="25" as="geometry" />
        </mxCell>
        <mxCell id="VkYrBGM2DWGojtH8OoqM-129" value="Xác nhận&amp;nbsp;" style="strokeWidth=1;shadow=0;dashed=0;align=center;html=1;shape=mxgraph.mockup.buttons.button;strokeColor=#666666;fontColor=#ffffff;mainText=;buttonStyle=round;fontSize=17;fontStyle=1;fillColor=#006633;whiteSpace=wrap;" parent="VkYrBGM2DWGojtH8OoqM-132" vertex="1">
          <mxGeometry x="260" y="380" width="140" height="44.74" as="geometry" />
        </mxCell>
        <mxCell id="J86y39Cw3nPgJy3DNBM7-66" value="Tổng tiền thanh toán" style="text;html=1;strokeColor=none;fillColor=none;align=center;verticalAlign=middle;whiteSpace=wrap;rounded=0;fontStyle=1" parent="VkYrBGM2DWGojtH8OoqM-132" vertex="1">
          <mxGeometry x="410" y="133" width="129" height="25" as="geometry" />
        </mxCell>
        <mxCell id="J86y39Cw3nPgJy3DNBM7-67" value="" style="shape=table;html=1;whiteSpace=wrap;startSize=0;container=1;collapsible=0;childLayout=tableLayout;" parent="VkYrBGM2DWGojtH8OoqM-132" vertex="1">
          <mxGeometry x="10" y="210" width="750" height="150" as="geometry" />
        </mxCell>
        <mxCell id="J86y39Cw3nPgJy3DNBM7-68" value="" style="shape=partialRectangle;html=1;whiteSpace=wrap;collapsible=0;dropTarget=0;pointerEvents=0;fillColor=none;top=0;left=0;bottom=0;right=0;points=[[0,0.5],[1,0.5]];portConstraint=eastwest;" parent="J86y39Cw3nPgJy3DNBM7-67" vertex="1">
          <mxGeometry width="750" height="38" as="geometry" />
        </mxCell>
        <mxCell id="J86y39Cw3nPgJy3DNBM7-69" value="Tên dịch vụ" style="shape=partialRectangle;html=1;whiteSpace=wrap;connectable=0;overflow=hidden;fillColor=#99FF99;top=0;left=0;bottom=0;right=0;" parent="J86y39Cw3nPgJy3DNBM7-68" vertex="1">
          <mxGeometry width="150" height="38" as="geometry">
            <mxRectangle width="150" height="38" as="alternateBounds" />
          </mxGeometry>
        </mxCell>
        <mxCell id="J86y39Cw3nPgJy3DNBM7-70" value="Số lượng" style="shape=partialRectangle;html=1;whiteSpace=wrap;connectable=0;overflow=hidden;fillColor=#99FF99;top=0;left=0;bottom=0;right=0;" parent="J86y39Cw3nPgJy3DNBM7-68" vertex="1">
          <mxGeometry x="150" width="150" height="38" as="geometry">
            <mxRectangle width="150" height="38" as="alternateBounds" />
          </mxGeometry>
        </mxCell>
        <mxCell id="J86y39Cw3nPgJy3DNBM7-71" value="Ngày đặt" style="shape=partialRectangle;html=1;whiteSpace=wrap;connectable=0;overflow=hidden;fillColor=#99FF99;top=0;left=0;bottom=0;right=0;" parent="J86y39Cw3nPgJy3DNBM7-68" vertex="1">
          <mxGeometry x="300" width="150" height="38" as="geometry">
            <mxRectangle width="150" height="38" as="alternateBounds" />
          </mxGeometry>
        </mxCell>
        <mxCell id="J86y39Cw3nPgJy3DNBM7-72" value="Đơn giá" style="shape=partialRectangle;html=1;whiteSpace=wrap;connectable=0;overflow=hidden;fillColor=#99FF99;top=0;left=0;bottom=0;right=0;" parent="J86y39Cw3nPgJy3DNBM7-68" vertex="1">
          <mxGeometry x="450" width="150" height="38" as="geometry">
            <mxRectangle width="150" height="38" as="alternateBounds" />
          </mxGeometry>
        </mxCell>
        <mxCell id="J86y39Cw3nPgJy3DNBM7-73" value="Thành tiền" style="shape=partialRectangle;html=1;whiteSpace=wrap;connectable=0;overflow=hidden;fillColor=#99FF99;top=0;left=0;bottom=0;right=0;" parent="J86y39Cw3nPgJy3DNBM7-68" vertex="1">
          <mxGeometry x="600" width="150" height="38" as="geometry">
            <mxRectangle width="150" height="38" as="alternateBounds" />
          </mxGeometry>
        </mxCell>
        <mxCell id="J86y39Cw3nPgJy3DNBM7-74" value="" style="shape=partialRectangle;html=1;whiteSpace=wrap;collapsible=0;dropTarget=0;pointerEvents=0;fillColor=none;top=0;left=0;bottom=0;right=0;points=[[0,0.5],[1,0.5]];portConstraint=eastwest;" parent="J86y39Cw3nPgJy3DNBM7-67" vertex="1">
          <mxGeometry y="38" width="750" height="37" as="geometry" />
        </mxCell>
        <mxCell id="J86y39Cw3nPgJy3DNBM7-75" value="" style="shape=partialRectangle;html=1;whiteSpace=wrap;connectable=0;overflow=hidden;fillColor=none;top=0;left=0;bottom=0;right=0;" parent="J86y39Cw3nPgJy3DNBM7-74" vertex="1">
          <mxGeometry width="150" height="37" as="geometry">
            <mxRectangle width="150" height="37" as="alternateBounds" />
          </mxGeometry>
        </mxCell>
        <mxCell id="J86y39Cw3nPgJy3DNBM7-76" value="" style="shape=partialRectangle;html=1;whiteSpace=wrap;connectable=0;overflow=hidden;fillColor=none;top=0;left=0;bottom=0;right=0;" parent="J86y39Cw3nPgJy3DNBM7-74" vertex="1">
          <mxGeometry x="150" width="150" height="37" as="geometry">
            <mxRectangle width="150" height="37" as="alternateBounds" />
          </mxGeometry>
        </mxCell>
        <mxCell id="J86y39Cw3nPgJy3DNBM7-77" value="" style="shape=partialRectangle;html=1;whiteSpace=wrap;connectable=0;overflow=hidden;fillColor=none;top=0;left=0;bottom=0;right=0;" parent="J86y39Cw3nPgJy3DNBM7-74" vertex="1">
          <mxGeometry x="300" width="150" height="37" as="geometry">
            <mxRectangle width="150" height="37" as="alternateBounds" />
          </mxGeometry>
        </mxCell>
        <mxCell id="J86y39Cw3nPgJy3DNBM7-78" value="" style="shape=partialRectangle;html=1;whiteSpace=wrap;connectable=0;overflow=hidden;fillColor=none;top=0;left=0;bottom=0;right=0;" parent="J86y39Cw3nPgJy3DNBM7-74" vertex="1">
          <mxGeometry x="450" width="150" height="37" as="geometry">
            <mxRectangle width="150" height="37" as="alternateBounds" />
          </mxGeometry>
        </mxCell>
        <mxCell id="J86y39Cw3nPgJy3DNBM7-79" value="" style="shape=partialRectangle;html=1;whiteSpace=wrap;connectable=0;overflow=hidden;fillColor=none;top=0;left=0;bottom=0;right=0;" parent="J86y39Cw3nPgJy3DNBM7-74" vertex="1">
          <mxGeometry x="600" width="150" height="37" as="geometry">
            <mxRectangle width="150" height="37" as="alternateBounds" />
          </mxGeometry>
        </mxCell>
        <mxCell id="J86y39Cw3nPgJy3DNBM7-80" value="" style="shape=partialRectangle;html=1;whiteSpace=wrap;collapsible=0;dropTarget=0;pointerEvents=0;fillColor=none;top=0;left=0;bottom=0;right=0;points=[[0,0.5],[1,0.5]];portConstraint=eastwest;" parent="J86y39Cw3nPgJy3DNBM7-67" vertex="1">
          <mxGeometry y="75" width="750" height="38" as="geometry" />
        </mxCell>
        <mxCell id="J86y39Cw3nPgJy3DNBM7-81" value="" style="shape=partialRectangle;html=1;whiteSpace=wrap;connectable=0;overflow=hidden;fillColor=none;top=0;left=0;bottom=0;right=0;" parent="J86y39Cw3nPgJy3DNBM7-80" vertex="1">
          <mxGeometry width="150" height="38" as="geometry">
            <mxRectangle width="150" height="38" as="alternateBounds" />
          </mxGeometry>
        </mxCell>
        <mxCell id="J86y39Cw3nPgJy3DNBM7-82" value="" style="shape=partialRectangle;html=1;whiteSpace=wrap;connectable=0;overflow=hidden;fillColor=none;top=0;left=0;bottom=0;right=0;" parent="J86y39Cw3nPgJy3DNBM7-80" vertex="1">
          <mxGeometry x="150" width="150" height="38" as="geometry">
            <mxRectangle width="150" height="38" as="alternateBounds" />
          </mxGeometry>
        </mxCell>
        <mxCell id="J86y39Cw3nPgJy3DNBM7-83" value="" style="shape=partialRectangle;html=1;whiteSpace=wrap;connectable=0;overflow=hidden;fillColor=none;top=0;left=0;bottom=0;right=0;" parent="J86y39Cw3nPgJy3DNBM7-80" vertex="1">
          <mxGeometry x="300" width="150" height="38" as="geometry">
            <mxRectangle width="150" height="38" as="alternateBounds" />
          </mxGeometry>
        </mxCell>
        <mxCell id="J86y39Cw3nPgJy3DNBM7-84" value="" style="shape=partialRectangle;html=1;whiteSpace=wrap;connectable=0;overflow=hidden;fillColor=none;top=0;left=0;bottom=0;right=0;" parent="J86y39Cw3nPgJy3DNBM7-80" vertex="1">
          <mxGeometry x="450" width="150" height="38" as="geometry">
            <mxRectangle width="150" height="38" as="alternateBounds" />
          </mxGeometry>
        </mxCell>
        <mxCell id="J86y39Cw3nPgJy3DNBM7-85" value="" style="shape=partialRectangle;html=1;whiteSpace=wrap;connectable=0;overflow=hidden;fillColor=none;top=0;left=0;bottom=0;right=0;" parent="J86y39Cw3nPgJy3DNBM7-80" vertex="1">
          <mxGeometry x="600" width="150" height="38" as="geometry">
            <mxRectangle width="150" height="38" as="alternateBounds" />
          </mxGeometry>
        </mxCell>
        <mxCell id="J86y39Cw3nPgJy3DNBM7-86" value="" style="shape=partialRectangle;html=1;whiteSpace=wrap;collapsible=0;dropTarget=0;pointerEvents=0;fillColor=none;top=0;left=0;bottom=0;right=0;points=[[0,0.5],[1,0.5]];portConstraint=eastwest;" parent="J86y39Cw3nPgJy3DNBM7-67" vertex="1">
          <mxGeometry y="113" width="750" height="37" as="geometry" />
        </mxCell>
        <mxCell id="J86y39Cw3nPgJy3DNBM7-87" value="" style="shape=partialRectangle;html=1;whiteSpace=wrap;connectable=0;overflow=hidden;fillColor=none;top=0;left=0;bottom=0;right=0;" parent="J86y39Cw3nPgJy3DNBM7-86" vertex="1">
          <mxGeometry width="150" height="37" as="geometry">
            <mxRectangle width="150" height="37" as="alternateBounds" />
          </mxGeometry>
        </mxCell>
        <mxCell id="J86y39Cw3nPgJy3DNBM7-88" value="" style="shape=partialRectangle;html=1;whiteSpace=wrap;connectable=0;overflow=hidden;fillColor=none;top=0;left=0;bottom=0;right=0;" parent="J86y39Cw3nPgJy3DNBM7-86" vertex="1">
          <mxGeometry x="150" width="150" height="37" as="geometry">
            <mxRectangle width="150" height="37" as="alternateBounds" />
          </mxGeometry>
        </mxCell>
        <mxCell id="J86y39Cw3nPgJy3DNBM7-89" value="" style="shape=partialRectangle;html=1;whiteSpace=wrap;connectable=0;overflow=hidden;fillColor=none;top=0;left=0;bottom=0;right=0;" parent="J86y39Cw3nPgJy3DNBM7-86" vertex="1">
          <mxGeometry x="300" width="150" height="37" as="geometry">
            <mxRectangle width="150" height="37" as="alternateBounds" />
          </mxGeometry>
        </mxCell>
        <mxCell id="J86y39Cw3nPgJy3DNBM7-90" value="" style="shape=partialRectangle;html=1;whiteSpace=wrap;connectable=0;overflow=hidden;fillColor=none;top=0;left=0;bottom=0;right=0;" parent="J86y39Cw3nPgJy3DNBM7-86" vertex="1">
          <mxGeometry x="450" width="150" height="37" as="geometry">
            <mxRectangle width="150" height="37" as="alternateBounds" />
          </mxGeometry>
        </mxCell>
        <mxCell id="J86y39Cw3nPgJy3DNBM7-91" value="" style="shape=partialRectangle;html=1;whiteSpace=wrap;connectable=0;overflow=hidden;fillColor=none;top=0;left=0;bottom=0;right=0;" parent="J86y39Cw3nPgJy3DNBM7-86" vertex="1">
          <mxGeometry x="600" width="150" height="37" as="geometry">
            <mxRectangle width="150" height="37" as="alternateBounds" />
          </mxGeometry>
        </mxCell>
        <mxCell id="rDmMaY0uW623CmIvIKGu-1" value="Phương thức thanh toán" style="text;html=1;strokeColor=none;fillColor=none;align=center;verticalAlign=middle;whiteSpace=wrap;rounded=0;fontStyle=1" parent="VkYrBGM2DWGojtH8OoqM-132" vertex="1">
          <mxGeometry x="385" y="170" width="160" height="25" as="geometry" />
        </mxCell>
        <mxCell id="rDmMaY0uW623CmIvIKGu-3" value="Option 1" style="strokeWidth=1;shadow=0;dashed=0;align=center;html=1;shape=mxgraph.mockup.forms.comboBox;strokeColor=#999999;fillColor=#ddeeff;align=left;fillColor2=#aaddff;mainText=;fontColor=#666666;fontSize=17;spacingLeft=3;" parent="VkYrBGM2DWGojtH8OoqM-132" vertex="1">
          <mxGeometry x="571" y="170" width="148" height="25" as="geometry" />
        </mxCell>
        <mxCell id="iYw7KzMgYFkrnAo4_3ZA-1" value="Option 1" style="strokeWidth=1;shadow=0;dashed=0;align=center;html=1;shape=mxgraph.mockup.forms.comboBox;strokeColor=#999999;fillColor=#ddeeff;align=left;fillColor2=#aaddff;mainText=;fontColor=#666666;fontSize=17;spacingLeft=3;" parent="VkYrBGM2DWGojtH8OoqM-132" vertex="1">
          <mxGeometry x="202" y="133" width="148" height="25" as="geometry" />
        </mxCell>
        <mxCell id="iYw7KzMgYFkrnAo4_3ZA-2" value="Mã đặt phòng" style="text;html=1;strokeColor=none;fillColor=none;align=center;verticalAlign=middle;whiteSpace=wrap;rounded=0;fontStyle=1" parent="VkYrBGM2DWGojtH8OoqM-132" vertex="1">
          <mxGeometry x="40" y="170" width="120" height="25" as="geometry" />
        </mxCell>
        <mxCell id="H5cZM4wsLbOpmiv_Wwyc-1" value="101" style="strokeWidth=1;shadow=0;dashed=0;align=center;html=1;shape=mxgraph.mockup.forms.comboBox;strokeColor=#999999;fillColor=#ddeeff;align=left;fillColor2=#aaddff;mainText=;fontColor=#666666;fontSize=17;spacingLeft=3;" parent="VkYrBGM2DWGojtH8OoqM-132" vertex="1">
          <mxGeometry x="204" y="97" width="148" height="25" as="geometry" />
        </mxCell>
        <mxCell id="yXwYBFHbV1xW_7F2In3F-1" value="In hóa đơn" style="strokeWidth=1;shadow=0;dashed=0;align=center;html=1;shape=mxgraph.mockup.buttons.button;strokeColor=#666666;fontColor=#ffffff;mainText=;buttonStyle=round;fontSize=17;fontStyle=1;fillColor=#006633;whiteSpace=wrap;" parent="VkYrBGM2DWGojtH8OoqM-132" vertex="1">
          <mxGeometry x="460" y="380" width="121" height="44.74" as="geometry" />
        </mxCell>
        <mxCell id="yXwYBFHbV1xW_7F2In3F-45" value="Thoát" style="strokeWidth=1;shadow=0;dashed=0;align=center;html=1;shape=mxgraph.mockup.buttons.button;strokeColor=#666666;fontColor=#ffffff;mainText=;buttonStyle=round;fontSize=17;fontStyle=1;fillColor=#006633;whiteSpace=wrap;" parent="VkYrBGM2DWGojtH8OoqM-132" vertex="1">
          <mxGeometry x="610" y="380" width="121" height="44.74" as="geometry" />
        </mxCell>
        <mxCell id="O6KozVIABjtlEsWUxaVl-8" value="" style="shape=umlDestroy;whiteSpace=wrap;html=1;strokeWidth=3;targetShapes=umlLifeline;strokeColor=#007FFF;" parent="VkYrBGM2DWGojtH8OoqM-132" vertex="1">
          <mxGeometry x="740" y="10" width="10" height="11" as="geometry" />
        </mxCell>
        <mxCell id="VkYrBGM2DWGojtH8OoqM-134" value="Xác Nhận" style="strokeWidth=1;shadow=0;dashed=0;align=center;html=1;shape=mxgraph.mockup.buttons.button;strokeColor=#666666;fontColor=#ffffff;mainText=;buttonStyle=round;fontSize=17;fontStyle=1;fillColor=#006633;whiteSpace=wrap;" parent="1" vertex="1">
          <mxGeometry x="1050" y="346.5" width="180" height="31" as="geometry" />
        </mxCell>
        <mxCell id="VkYrBGM2DWGojtH8OoqM-135" value="" style="strokeWidth=1;shadow=0;dashed=0;align=center;html=1;shape=mxgraph.mockup.forms.comboBox;strokeColor=#999999;fillColor=#ddeeff;align=left;fillColor2=#aaddff;mainText=;fontColor=#666666;fontSize=17;spacingLeft=3;" parent="1" vertex="1">
          <mxGeometry x="1460" y="234.75" width="150" height="30" as="geometry" />
        </mxCell>
        <mxCell id="VkYrBGM2DWGojtH8OoqM-139" value="Ngày đặt" style="text;html=1;strokeColor=none;fillColor=none;align=center;verticalAlign=middle;whiteSpace=wrap;rounded=0;fontStyle=1" parent="1" vertex="1">
          <mxGeometry x="1320" y="175.75" width="120" height="30" as="geometry" />
        </mxCell>
        <mxCell id="VkYrBGM2DWGojtH8OoqM-140" value="&amp;nbsp;" style="strokeWidth=1;shadow=0;dashed=0;align=center;html=1;shape=mxgraph.mockup.text.textBox;align=left;fontSize=17;spacingLeft=4;spacingTop=-3;mainText=;" parent="1" vertex="1">
          <mxGeometry x="1460" y="176.75" width="150" height="30" as="geometry" />
        </mxCell>
        <mxCell id="J86y39Cw3nPgJy3DNBM7-2" value="" style="group" parent="1" vertex="1" connectable="0">
          <mxGeometry x="900" y="640" width="750" height="440" as="geometry" />
        </mxCell>
        <mxCell id="J86y39Cw3nPgJy3DNBM7-3" value="Quản lý dịch vụ" style="strokeWidth=1;shadow=0;dashed=0;align=center;html=1;shape=mxgraph.mockup.containers.window;align=left;verticalAlign=top;spacingLeft=8;strokeColor2=#008cff;strokeColor3=#c4c4c4;fontColor=#666666;mainText=;fontSize=17;labelBackgroundColor=none;fontStyle=1" parent="J86y39Cw3nPgJy3DNBM7-2" vertex="1">
          <mxGeometry width="750" height="440" as="geometry" />
        </mxCell>
        <mxCell id="J86y39Cw3nPgJy3DNBM7-4" value="Chi tiết dịch vụ" style="text;html=1;strokeColor=none;fillColor=none;align=center;verticalAlign=middle;whiteSpace=wrap;rounded=0;fontSize=29;fontStyle=1" parent="J86y39Cw3nPgJy3DNBM7-2" vertex="1">
          <mxGeometry x="215" y="40" width="330" height="60" as="geometry" />
        </mxCell>
        <mxCell id="J86y39Cw3nPgJy3DNBM7-5" value="Tên dịch vụ" style="text;html=1;strokeColor=none;fillColor=none;align=center;verticalAlign=middle;whiteSpace=wrap;rounded=0;fontStyle=1" parent="J86y39Cw3nPgJy3DNBM7-2" vertex="1">
          <mxGeometry x="30" y="130" width="120" height="30" as="geometry" />
        </mxCell>
        <mxCell id="J86y39Cw3nPgJy3DNBM7-7" value="Số lượng" style="text;html=1;strokeColor=none;fillColor=none;align=center;verticalAlign=middle;whiteSpace=wrap;rounded=0;fontStyle=1" parent="J86y39Cw3nPgJy3DNBM7-2" vertex="1">
          <mxGeometry x="29" y="175" width="120" height="22.5" as="geometry" />
        </mxCell>
        <mxCell id="J86y39Cw3nPgJy3DNBM7-10" value="" style="strokeWidth=1;shadow=0;dashed=0;align=center;html=1;shape=mxgraph.mockup.text.textBox;align=left;fontSize=17;spacingLeft=4;spacingTop=-3;strokeColor=#36393d;mainText=;fillColor=#eeeeee;" parent="J86y39Cw3nPgJy3DNBM7-2" vertex="1">
          <mxGeometry x="569" y="130" width="150" height="30" as="geometry" />
        </mxCell>
        <mxCell id="J86y39Cw3nPgJy3DNBM7-24" value="Đơn giá" style="text;html=1;strokeColor=none;fillColor=none;align=center;verticalAlign=middle;whiteSpace=wrap;rounded=0;fontStyle=1" parent="J86y39Cw3nPgJy3DNBM7-2" vertex="1">
          <mxGeometry x="410" y="130" width="120" height="30" as="geometry" />
        </mxCell>
        <mxCell id="J86y39Cw3nPgJy3DNBM7-27" value="" style="strokeWidth=1;shadow=0;dashed=0;align=center;html=1;shape=mxgraph.mockup.text.textBox;align=left;fontSize=17;spacingLeft=4;spacingTop=-3;strokeColor=#36393d;mainText=;fillColor=#eeeeee;" parent="J86y39Cw3nPgJy3DNBM7-2" vertex="1">
          <mxGeometry x="569" y="175" width="150" height="30" as="geometry" />
        </mxCell>
        <mxCell id="J86y39Cw3nPgJy3DNBM7-28" value="Thành tiền" style="text;html=1;strokeColor=none;fillColor=none;align=center;verticalAlign=middle;whiteSpace=wrap;rounded=0;fontStyle=1" parent="J86y39Cw3nPgJy3DNBM7-2" vertex="1">
          <mxGeometry x="410" y="175" width="120" height="30" as="geometry" />
        </mxCell>
        <mxCell id="J86y39Cw3nPgJy3DNBM7-29" value="" style="shape=table;html=1;whiteSpace=wrap;startSize=0;container=1;collapsible=0;childLayout=tableLayout;" parent="J86y39Cw3nPgJy3DNBM7-2" vertex="1">
          <mxGeometry y="240" width="750" height="120" as="geometry" />
        </mxCell>
        <mxCell id="J86y39Cw3nPgJy3DNBM7-30" value="" style="shape=partialRectangle;html=1;whiteSpace=wrap;collapsible=0;dropTarget=0;pointerEvents=0;fillColor=none;top=0;left=0;bottom=0;right=0;points=[[0,0.5],[1,0.5]];portConstraint=eastwest;" parent="J86y39Cw3nPgJy3DNBM7-29" vertex="1">
          <mxGeometry width="750" height="30" as="geometry" />
        </mxCell>
        <mxCell id="J86y39Cw3nPgJy3DNBM7-31" value="Tên dịch vụ" style="shape=partialRectangle;html=1;whiteSpace=wrap;connectable=0;overflow=hidden;fillColor=#99FF99;top=0;left=0;bottom=0;right=0;strokeColor=#36393d;" parent="J86y39Cw3nPgJy3DNBM7-30" vertex="1">
          <mxGeometry width="200" height="30" as="geometry">
            <mxRectangle width="200" height="30" as="alternateBounds" />
          </mxGeometry>
        </mxCell>
        <mxCell id="J86y39Cw3nPgJy3DNBM7-32" value="Số lượng" style="shape=partialRectangle;html=1;whiteSpace=wrap;connectable=0;overflow=hidden;fillColor=#99FF99;top=0;left=0;bottom=0;right=0;strokeColor=#36393d;" parent="J86y39Cw3nPgJy3DNBM7-30" vertex="1">
          <mxGeometry x="200" width="100" height="30" as="geometry">
            <mxRectangle width="100" height="30" as="alternateBounds" />
          </mxGeometry>
        </mxCell>
        <mxCell id="J86y39Cw3nPgJy3DNBM7-33" value="Đơn vị tính" style="shape=partialRectangle;html=1;whiteSpace=wrap;connectable=0;overflow=hidden;fillColor=#99FF99;top=0;left=0;bottom=0;right=0;strokeColor=#36393d;" parent="J86y39Cw3nPgJy3DNBM7-30" vertex="1">
          <mxGeometry x="300" width="150" height="30" as="geometry">
            <mxRectangle width="150" height="30" as="alternateBounds" />
          </mxGeometry>
        </mxCell>
        <mxCell id="J86y39Cw3nPgJy3DNBM7-34" value="Đơn giá" style="shape=partialRectangle;html=1;whiteSpace=wrap;connectable=0;overflow=hidden;fillColor=#99FF99;top=0;left=0;bottom=0;right=0;strokeColor=#36393d;" parent="J86y39Cw3nPgJy3DNBM7-30" vertex="1">
          <mxGeometry x="450" width="150" height="30" as="geometry">
            <mxRectangle width="150" height="30" as="alternateBounds" />
          </mxGeometry>
        </mxCell>
        <mxCell id="J86y39Cw3nPgJy3DNBM7-35" value="Thành tiền" style="shape=partialRectangle;html=1;whiteSpace=wrap;connectable=0;overflow=hidden;fillColor=#99FF99;top=0;left=0;bottom=0;right=0;strokeColor=#36393d;" parent="J86y39Cw3nPgJy3DNBM7-30" vertex="1">
          <mxGeometry x="600" width="150" height="30" as="geometry">
            <mxRectangle width="150" height="30" as="alternateBounds" />
          </mxGeometry>
        </mxCell>
        <mxCell id="J86y39Cw3nPgJy3DNBM7-36" value="" style="shape=partialRectangle;html=1;whiteSpace=wrap;collapsible=0;dropTarget=0;pointerEvents=0;fillColor=none;top=0;left=0;bottom=0;right=0;points=[[0,0.5],[1,0.5]];portConstraint=eastwest;" parent="J86y39Cw3nPgJy3DNBM7-29" vertex="1">
          <mxGeometry y="30" width="750" height="30" as="geometry" />
        </mxCell>
        <mxCell id="J86y39Cw3nPgJy3DNBM7-37" value="" style="shape=partialRectangle;html=1;whiteSpace=wrap;connectable=0;overflow=hidden;fillColor=none;top=0;left=0;bottom=0;right=0;" parent="J86y39Cw3nPgJy3DNBM7-36" vertex="1">
          <mxGeometry width="200" height="30" as="geometry">
            <mxRectangle width="200" height="30" as="alternateBounds" />
          </mxGeometry>
        </mxCell>
        <mxCell id="J86y39Cw3nPgJy3DNBM7-38" value="" style="shape=partialRectangle;html=1;whiteSpace=wrap;connectable=0;overflow=hidden;fillColor=none;top=0;left=0;bottom=0;right=0;" parent="J86y39Cw3nPgJy3DNBM7-36" vertex="1">
          <mxGeometry x="200" width="100" height="30" as="geometry">
            <mxRectangle width="100" height="30" as="alternateBounds" />
          </mxGeometry>
        </mxCell>
        <mxCell id="J86y39Cw3nPgJy3DNBM7-39" value="" style="shape=partialRectangle;html=1;whiteSpace=wrap;connectable=0;overflow=hidden;fillColor=none;top=0;left=0;bottom=0;right=0;" parent="J86y39Cw3nPgJy3DNBM7-36" vertex="1">
          <mxGeometry x="300" width="150" height="30" as="geometry">
            <mxRectangle width="150" height="30" as="alternateBounds" />
          </mxGeometry>
        </mxCell>
        <mxCell id="J86y39Cw3nPgJy3DNBM7-40" value="" style="shape=partialRectangle;html=1;whiteSpace=wrap;connectable=0;overflow=hidden;fillColor=none;top=0;left=0;bottom=0;right=0;" parent="J86y39Cw3nPgJy3DNBM7-36" vertex="1">
          <mxGeometry x="450" width="150" height="30" as="geometry">
            <mxRectangle width="150" height="30" as="alternateBounds" />
          </mxGeometry>
        </mxCell>
        <mxCell id="J86y39Cw3nPgJy3DNBM7-41" value="" style="shape=partialRectangle;html=1;whiteSpace=wrap;connectable=0;overflow=hidden;fillColor=none;top=0;left=0;bottom=0;right=0;" parent="J86y39Cw3nPgJy3DNBM7-36" vertex="1">
          <mxGeometry x="600" width="150" height="30" as="geometry">
            <mxRectangle width="150" height="30" as="alternateBounds" />
          </mxGeometry>
        </mxCell>
        <mxCell id="J86y39Cw3nPgJy3DNBM7-42" value="" style="shape=partialRectangle;html=1;whiteSpace=wrap;collapsible=0;dropTarget=0;pointerEvents=0;fillColor=none;top=0;left=0;bottom=0;right=0;points=[[0,0.5],[1,0.5]];portConstraint=eastwest;" parent="J86y39Cw3nPgJy3DNBM7-29" vertex="1">
          <mxGeometry y="60" width="750" height="30" as="geometry" />
        </mxCell>
        <mxCell id="J86y39Cw3nPgJy3DNBM7-43" value="" style="shape=partialRectangle;html=1;whiteSpace=wrap;connectable=0;overflow=hidden;fillColor=none;top=0;left=0;bottom=0;right=0;" parent="J86y39Cw3nPgJy3DNBM7-42" vertex="1">
          <mxGeometry width="200" height="30" as="geometry">
            <mxRectangle width="200" height="30" as="alternateBounds" />
          </mxGeometry>
        </mxCell>
        <mxCell id="J86y39Cw3nPgJy3DNBM7-44" value="" style="shape=partialRectangle;html=1;whiteSpace=wrap;connectable=0;overflow=hidden;fillColor=none;top=0;left=0;bottom=0;right=0;" parent="J86y39Cw3nPgJy3DNBM7-42" vertex="1">
          <mxGeometry x="200" width="100" height="30" as="geometry">
            <mxRectangle width="100" height="30" as="alternateBounds" />
          </mxGeometry>
        </mxCell>
        <mxCell id="J86y39Cw3nPgJy3DNBM7-45" value="" style="shape=partialRectangle;html=1;whiteSpace=wrap;connectable=0;overflow=hidden;fillColor=none;top=0;left=0;bottom=0;right=0;" parent="J86y39Cw3nPgJy3DNBM7-42" vertex="1">
          <mxGeometry x="300" width="150" height="30" as="geometry">
            <mxRectangle width="150" height="30" as="alternateBounds" />
          </mxGeometry>
        </mxCell>
        <mxCell id="J86y39Cw3nPgJy3DNBM7-46" value="" style="shape=partialRectangle;html=1;whiteSpace=wrap;connectable=0;overflow=hidden;fillColor=none;top=0;left=0;bottom=0;right=0;" parent="J86y39Cw3nPgJy3DNBM7-42" vertex="1">
          <mxGeometry x="450" width="150" height="30" as="geometry">
            <mxRectangle width="150" height="30" as="alternateBounds" />
          </mxGeometry>
        </mxCell>
        <mxCell id="J86y39Cw3nPgJy3DNBM7-47" value="" style="shape=partialRectangle;html=1;whiteSpace=wrap;connectable=0;overflow=hidden;fillColor=none;top=0;left=0;bottom=0;right=0;" parent="J86y39Cw3nPgJy3DNBM7-42" vertex="1">
          <mxGeometry x="600" width="150" height="30" as="geometry">
            <mxRectangle width="150" height="30" as="alternateBounds" />
          </mxGeometry>
        </mxCell>
        <mxCell id="J86y39Cw3nPgJy3DNBM7-48" value="" style="shape=partialRectangle;html=1;whiteSpace=wrap;collapsible=0;dropTarget=0;pointerEvents=0;fillColor=none;top=0;left=0;bottom=0;right=0;points=[[0,0.5],[1,0.5]];portConstraint=eastwest;" parent="J86y39Cw3nPgJy3DNBM7-29" vertex="1">
          <mxGeometry y="90" width="750" height="30" as="geometry" />
        </mxCell>
        <mxCell id="J86y39Cw3nPgJy3DNBM7-49" value="" style="shape=partialRectangle;html=1;whiteSpace=wrap;connectable=0;overflow=hidden;fillColor=none;top=0;left=0;bottom=0;right=0;" parent="J86y39Cw3nPgJy3DNBM7-48" vertex="1">
          <mxGeometry width="200" height="30" as="geometry">
            <mxRectangle width="200" height="30" as="alternateBounds" />
          </mxGeometry>
        </mxCell>
        <mxCell id="J86y39Cw3nPgJy3DNBM7-50" value="" style="shape=partialRectangle;html=1;whiteSpace=wrap;connectable=0;overflow=hidden;fillColor=none;top=0;left=0;bottom=0;right=0;" parent="J86y39Cw3nPgJy3DNBM7-48" vertex="1">
          <mxGeometry x="200" width="100" height="30" as="geometry">
            <mxRectangle width="100" height="30" as="alternateBounds" />
          </mxGeometry>
        </mxCell>
        <mxCell id="J86y39Cw3nPgJy3DNBM7-51" value="" style="shape=partialRectangle;html=1;whiteSpace=wrap;connectable=0;overflow=hidden;fillColor=none;top=0;left=0;bottom=0;right=0;" parent="J86y39Cw3nPgJy3DNBM7-48" vertex="1">
          <mxGeometry x="300" width="150" height="30" as="geometry">
            <mxRectangle width="150" height="30" as="alternateBounds" />
          </mxGeometry>
        </mxCell>
        <mxCell id="J86y39Cw3nPgJy3DNBM7-52" value="" style="shape=partialRectangle;html=1;whiteSpace=wrap;connectable=0;overflow=hidden;fillColor=none;top=0;left=0;bottom=0;right=0;" parent="J86y39Cw3nPgJy3DNBM7-48" vertex="1">
          <mxGeometry x="450" width="150" height="30" as="geometry">
            <mxRectangle width="150" height="30" as="alternateBounds" />
          </mxGeometry>
        </mxCell>
        <mxCell id="J86y39Cw3nPgJy3DNBM7-53" value="" style="shape=partialRectangle;html=1;whiteSpace=wrap;connectable=0;overflow=hidden;fillColor=none;top=0;left=0;bottom=0;right=0;" parent="J86y39Cw3nPgJy3DNBM7-48" vertex="1">
          <mxGeometry x="600" width="150" height="30" as="geometry">
            <mxRectangle width="150" height="30" as="alternateBounds" />
          </mxGeometry>
        </mxCell>
        <mxCell id="J86y39Cw3nPgJy3DNBM7-54" value="Vip1" style="strokeWidth=1;shadow=0;dashed=0;align=center;html=1;shape=mxgraph.mockup.forms.comboBox;strokeColor=#999999;fillColor=#ddeeff;align=left;fillColor2=#aaddff;mainText=;fontColor=#666666;fontSize=17;spacingLeft=3;" parent="J86y39Cw3nPgJy3DNBM7-2" vertex="1">
          <mxGeometry x="149" y="129" width="150" height="30" as="geometry" />
        </mxCell>
        <mxCell id="J86y39Cw3nPgJy3DNBM7-55" value="&lt;table cellpadding=&quot;0&quot; cellspacing=&quot;0&quot; style=&quot;width:100%;height:100%;&quot;&gt;&lt;tr&gt;&lt;td style=&quot;width:85%&quot;&gt;100&lt;/td&gt;&lt;td style=&quot;width:15%&quot;&gt;&lt;/td&gt;&lt;/tr&gt;&lt;/table&gt;" style="strokeWidth=1;shadow=0;dashed=0;align=center;html=1;shape=mxgraph.mockup.forms.spinner;strokeColor=#999999;spinLayout=right;spinStyle=normal;adjStyle=triangle;fillColor=#aaddff;fontSize=17;fontColor=#666666;mainText=;html=1;overflow=fill;" parent="J86y39Cw3nPgJy3DNBM7-2" vertex="1">
          <mxGeometry x="149" y="175" width="101" height="25" as="geometry" />
        </mxCell>
        <mxCell id="J86y39Cw3nPgJy3DNBM7-56" value="Thêm" style="strokeWidth=1;shadow=0;dashed=0;align=center;html=1;shape=mxgraph.mockup.buttons.button;strokeColor=#666666;fontColor=#ffffff;mainText=;buttonStyle=round;fontSize=17;fontStyle=1;fillColor=#006633;whiteSpace=wrap;" parent="J86y39Cw3nPgJy3DNBM7-2" vertex="1">
          <mxGeometry x="18" y="390" width="111" height="30" as="geometry" />
        </mxCell>
        <mxCell id="J86y39Cw3nPgJy3DNBM7-57" value="Xóa" style="strokeWidth=1;shadow=0;dashed=0;align=center;html=1;shape=mxgraph.mockup.buttons.button;strokeColor=#666666;fontColor=#ffffff;mainText=;buttonStyle=round;fontSize=17;fontStyle=1;fillColor=#006633;whiteSpace=wrap;" parent="J86y39Cw3nPgJy3DNBM7-2" vertex="1">
          <mxGeometry x="164" y="390" width="111" height="30" as="geometry" />
        </mxCell>
        <mxCell id="J86y39Cw3nPgJy3DNBM7-58" value="Quay lại" style="strokeWidth=1;shadow=0;dashed=0;align=center;html=1;shape=mxgraph.mockup.buttons.button;strokeColor=#666666;fontColor=#ffffff;mainText=;buttonStyle=round;fontSize=17;fontStyle=1;fillColor=#006666;whiteSpace=wrap;" parent="J86y39Cw3nPgJy3DNBM7-2" vertex="1">
          <mxGeometry x="470" y="390" width="111" height="30" as="geometry" />
        </mxCell>
        <mxCell id="J86y39Cw3nPgJy3DNBM7-59" value="Xác nhận" style="strokeWidth=1;shadow=0;dashed=0;align=center;html=1;shape=mxgraph.mockup.buttons.button;strokeColor=#666666;fontColor=#ffffff;mainText=;buttonStyle=round;fontSize=17;fontStyle=1;fillColor=#006633;whiteSpace=wrap;" parent="J86y39Cw3nPgJy3DNBM7-2" vertex="1">
          <mxGeometry x="608" y="390" width="111" height="30" as="geometry" />
        </mxCell>
        <mxCell id="J86y39Cw3nPgJy3DNBM7-25" value="ĐV" style="strokeWidth=1;shadow=0;dashed=0;align=center;html=1;shape=mxgraph.mockup.text.textBox;align=left;fontSize=17;spacingLeft=4;spacingTop=-3;strokeColor=#36393d;mainText=;fillColor=#eeeeee;" parent="J86y39Cw3nPgJy3DNBM7-2" vertex="1">
          <mxGeometry x="250" y="172.5" width="51" height="30" as="geometry" />
        </mxCell>
        <mxCell id="O6KozVIABjtlEsWUxaVl-7" value="" style="shape=umlDestroy;whiteSpace=wrap;html=1;strokeWidth=3;targetShapes=umlLifeline;strokeColor=#007FFF;" parent="J86y39Cw3nPgJy3DNBM7-2" vertex="1">
          <mxGeometry x="730" y="10" width="10" height="11" as="geometry" />
        </mxCell>
        <mxCell id="J86y39Cw3nPgJy3DNBM7-60" value="Tên khách hàng" style="text;html=1;strokeColor=none;fillColor=none;align=center;verticalAlign=middle;whiteSpace=wrap;rounded=0;fontStyle=1" parent="1" vertex="1">
          <mxGeometry x="940" y="234.75" width="120" height="30" as="geometry" />
        </mxCell>
        <mxCell id="J86y39Cw3nPgJy3DNBM7-128" value="" style="group" parent="1" vertex="1" connectable="0">
          <mxGeometry x="-1680" y="29.5" width="750" height="490" as="geometry" />
        </mxCell>
        <mxCell id="J86y39Cw3nPgJy3DNBM7-113" value="&lt;b&gt;Quản lý dịch vụ&lt;/b&gt;" style="strokeWidth=1;shadow=0;dashed=0;align=center;html=1;shape=mxgraph.mockup.containers.window;align=left;verticalAlign=top;spacingLeft=8;strokeColor2=#008cff;strokeColor3=#c4c4c4;fontColor=#666666;mainText=;fontSize=17;labelBackgroundColor=none;" parent="J86y39Cw3nPgJy3DNBM7-128" vertex="1">
          <mxGeometry width="750" height="440" as="geometry" />
        </mxCell>
        <mxCell id="J86y39Cw3nPgJy3DNBM7-116" value="Thông tin đặt cọc" style="text;html=1;strokeColor=none;fillColor=none;align=center;verticalAlign=middle;whiteSpace=wrap;rounded=0;fontSize=29;fontStyle=1" parent="J86y39Cw3nPgJy3DNBM7-128" vertex="1">
          <mxGeometry x="220" y="30.5" width="310" height="50" as="geometry" />
        </mxCell>
        <mxCell id="J86y39Cw3nPgJy3DNBM7-126" value="Hủy" style="strokeWidth=1;shadow=0;dashed=0;align=center;html=1;shape=mxgraph.mockup.buttons.button;strokeColor=#666666;fontColor=#ffffff;mainText=;buttonStyle=round;fontSize=17;fontStyle=1;fillColor=#006633;whiteSpace=wrap;" parent="J86y39Cw3nPgJy3DNBM7-128" vertex="1">
          <mxGeometry x="460" y="320" width="140" height="40" as="geometry" />
        </mxCell>
        <mxCell id="J86y39Cw3nPgJy3DNBM7-127" value="Xác nhận cọc" style="strokeWidth=1;shadow=0;dashed=0;align=center;html=1;shape=mxgraph.mockup.buttons.button;strokeColor=#666666;fontColor=#ffffff;mainText=;buttonStyle=round;fontSize=17;fontStyle=1;fillColor=#006633;whiteSpace=wrap;" parent="J86y39Cw3nPgJy3DNBM7-128" vertex="1">
          <mxGeometry x="150" y="320" width="140" height="40" as="geometry" />
        </mxCell>
        <mxCell id="rDmMaY0uW623CmIvIKGu-12" value="Tên khách hàng" style="text;html=1;strokeColor=none;fillColor=none;align=center;verticalAlign=middle;whiteSpace=wrap;rounded=0;fontStyle=1" parent="J86y39Cw3nPgJy3DNBM7-128" vertex="1">
          <mxGeometry x="40" y="100.5" width="120" height="30" as="geometry" />
        </mxCell>
        <mxCell id="rDmMaY0uW623CmIvIKGu-13" value="" style="strokeWidth=1;shadow=0;dashed=0;align=center;html=1;shape=mxgraph.mockup.text.textBox;fontColor=#666666;align=left;fontSize=17;spacingLeft=4;spacingTop=-3;strokeColor=#666666;mainText=;fillColor=#FFFFFF;" parent="J86y39Cw3nPgJy3DNBM7-128" vertex="1">
          <mxGeometry x="160" y="100.5" width="150" height="30" as="geometry" />
        </mxCell>
        <mxCell id="rDmMaY0uW623CmIvIKGu-14" value="" style="strokeWidth=1;shadow=0;dashed=0;align=center;html=1;shape=mxgraph.mockup.text.textBox;align=left;fontSize=17;spacingLeft=4;spacingTop=-3;strokeColor=#36393d;mainText=;fillColor=#eeeeee;" parent="J86y39Cw3nPgJy3DNBM7-128" vertex="1">
          <mxGeometry x="160" y="160.5" width="149" height="30" as="geometry" />
        </mxCell>
        <mxCell id="rDmMaY0uW623CmIvIKGu-15" value="Ngày nhận cọc" style="text;html=1;strokeColor=none;fillColor=none;align=center;verticalAlign=middle;whiteSpace=wrap;rounded=0;fontStyle=1" parent="J86y39Cw3nPgJy3DNBM7-128" vertex="1">
          <mxGeometry x="40" y="160.5" width="120" height="30" as="geometry" />
        </mxCell>
        <mxCell id="rDmMaY0uW623CmIvIKGu-16" value="" style="strokeWidth=1;shadow=0;dashed=0;align=center;html=1;shape=mxgraph.mockup.text.textBox;align=left;fontSize=17;spacingLeft=4;spacingTop=-3;mainText=;" parent="J86y39Cw3nPgJy3DNBM7-128" vertex="1">
          <mxGeometry x="525" y="160.5" width="149" height="30" as="geometry" />
        </mxCell>
        <mxCell id="rDmMaY0uW623CmIvIKGu-17" value="Số tiền" style="text;html=1;strokeColor=none;fillColor=none;align=center;verticalAlign=middle;whiteSpace=wrap;rounded=0;fontStyle=1" parent="J86y39Cw3nPgJy3DNBM7-128" vertex="1">
          <mxGeometry x="420" y="160.5" width="120" height="30" as="geometry" />
        </mxCell>
        <mxCell id="Fybf8yj_H5SRwN5i5jk1-2" value="" style="strokeWidth=1;shadow=0;dashed=0;align=center;html=1;shape=mxgraph.mockup.text.textBox;fontColor=#666666;align=left;fontSize=17;spacingLeft=4;spacingTop=-3;strokeColor=#666666;mainText=;fillColor=#FFFFFF;" parent="J86y39Cw3nPgJy3DNBM7-128" vertex="1">
          <mxGeometry x="525" y="100.5" width="150" height="30" as="geometry" />
        </mxCell>
        <mxCell id="Fybf8yj_H5SRwN5i5jk1-3" value="CMND/CCCD" style="text;html=1;strokeColor=none;fillColor=none;align=center;verticalAlign=middle;whiteSpace=wrap;rounded=0;fontStyle=1" parent="J86y39Cw3nPgJy3DNBM7-128" vertex="1">
          <mxGeometry x="420" y="100.5" width="120" height="30" as="geometry" />
        </mxCell>
        <mxCell id="Fybf8yj_H5SRwN5i5jk1-4" value="" style="strokeWidth=1;shadow=0;dashed=0;align=center;html=1;shape=mxgraph.mockup.text.textBox;align=left;fontSize=17;spacingLeft=4;spacingTop=-3;mainText=;" parent="J86y39Cw3nPgJy3DNBM7-128" vertex="1">
          <mxGeometry x="160" y="220" width="149" height="30" as="geometry" />
        </mxCell>
        <mxCell id="Fybf8yj_H5SRwN5i5jk1-5" value="Chú Thích" style="text;html=1;strokeColor=none;fillColor=none;align=center;verticalAlign=middle;whiteSpace=wrap;rounded=0;fontStyle=1" parent="J86y39Cw3nPgJy3DNBM7-128" vertex="1">
          <mxGeometry x="40" y="220" width="120" height="30" as="geometry" />
        </mxCell>
        <mxCell id="O6KozVIABjtlEsWUxaVl-1" value="" style="shape=umlDestroy;whiteSpace=wrap;html=1;strokeWidth=3;targetShapes=umlLifeline;strokeColor=#007FFF;" parent="J86y39Cw3nPgJy3DNBM7-128" vertex="1">
          <mxGeometry x="730" y="10.5" width="10" height="11" as="geometry" />
        </mxCell>
        <mxCell id="rDmMaY0uW623CmIvIKGu-5" value="Ngày nhận phòng" style="text;html=1;strokeColor=none;fillColor=none;align=center;verticalAlign=middle;whiteSpace=wrap;rounded=0;fontStyle=1" parent="1" vertex="1">
          <mxGeometry x="-399" y="260" width="120" height="30" as="geometry" />
        </mxCell>
        <mxCell id="rDmMaY0uW623CmIvIKGu-7" value="" style="strokeWidth=1;shadow=0;dashed=0;align=center;html=1;shape=mxgraph.mockup.text.textBox;align=left;fontSize=17;spacingLeft=4;spacingTop=-3;strokeColor=#36393d;mainText=;fillColor=#eeeeee;" parent="1" vertex="1">
          <mxGeometry x="-240" y="260" width="149" height="30" as="geometry" />
        </mxCell>
        <mxCell id="rDmMaY0uW623CmIvIKGu-9" value="" style="strokeWidth=1;shadow=0;dashed=0;align=center;html=1;shape=mxgraph.mockup.text.textBox;fontColor=#666666;align=left;fontSize=17;spacingLeft=4;spacingTop=-3;strokeColor=#666666;mainText=;fillColor=#FFFFFF;" parent="1" vertex="1">
          <mxGeometry x="-241" y="310" width="150" height="30" as="geometry" />
        </mxCell>
        <mxCell id="rDmMaY0uW623CmIvIKGu-20" value="" style="strokeWidth=1;shadow=0;dashed=0;align=center;html=1;shape=mxgraph.mockup.forms.comboBox;strokeColor=#999999;fillColor=#ddeeff;align=left;fillColor2=#aaddff;mainText=;fontColor=#666666;fontSize=17;spacingLeft=3;" parent="1" vertex="1">
          <mxGeometry x="1080" y="234.75" width="150" height="30" as="geometry" />
        </mxCell>
        <mxCell id="wHYKQldwxbXWLegVRE9--1" value="" style="rounded=0;whiteSpace=wrap;html=1;" parent="1" vertex="1">
          <mxGeometry x="-540" y="393.5" width="10" height="13" as="geometry" />
        </mxCell>
        <mxCell id="wHYKQldwxbXWLegVRE9--2" value="&lt;font style=&quot;font-size: 14px&quot;&gt;Đã đặt cọc&lt;/font&gt;" style="text;html=1;strokeColor=none;fillColor=none;align=center;verticalAlign=middle;whiteSpace=wrap;rounded=0;" parent="1" vertex="1">
          <mxGeometry x="-530" y="382.5" width="80" height="36.5" as="geometry" />
        </mxCell>
        <mxCell id="wHYKQldwxbXWLegVRE9--5" value="" style="rounded=0;whiteSpace=wrap;html=1;" parent="1" vertex="1">
          <mxGeometry x="130" y="981.75" width="10" height="13" as="geometry" />
        </mxCell>
        <mxCell id="wHYKQldwxbXWLegVRE9--6" value="&lt;font style=&quot;font-size: 14px&quot;&gt;Đã thanh toán&lt;br&gt;&lt;/font&gt;" style="text;html=1;strokeColor=none;fillColor=none;align=center;verticalAlign=middle;whiteSpace=wrap;rounded=0;" parent="1" vertex="1">
          <mxGeometry x="140" y="970" width="110" height="36.5" as="geometry" />
        </mxCell>
        <mxCell id="Fybf8yj_H5SRwN5i5jk1-1" value="Đặt cọc" style="strokeWidth=1;shadow=0;dashed=0;align=center;html=1;shape=mxgraph.mockup.buttons.button;strokeColor=#666666;fontColor=#ffffff;mainText=;buttonStyle=round;fontSize=17;fontStyle=1;fillColor=#006633;whiteSpace=wrap;" parent="1" vertex="1">
          <mxGeometry x="-740" y="380" width="140" height="40" as="geometry" />
        </mxCell>
        <mxCell id="-i7CXNjj_J_R6NrQRBQ2-1" value="Số phòng" style="text;html=1;strokeColor=none;fillColor=none;align=center;verticalAlign=middle;whiteSpace=wrap;rounded=0;fontStyle=1" parent="1" vertex="1">
          <mxGeometry x="-770" y="268" width="120" height="30" as="geometry" />
        </mxCell>
        <mxCell id="-i7CXNjj_J_R6NrQRBQ2-2" value="1012" style="strokeWidth=1;shadow=0;dashed=0;align=center;html=1;shape=mxgraph.mockup.forms.comboBox;strokeColor=#999999;fillColor=#ddeeff;align=left;fillColor2=#aaddff;mainText=;fontColor=#666666;fontSize=17;spacingLeft=3;" parent="1" vertex="1">
          <mxGeometry x="-640" y="268" width="150" height="30" as="geometry" />
        </mxCell>
        <mxCell id="O6KozVIABjtlEsWUxaVl-2" value="" style="shape=umlDestroy;whiteSpace=wrap;html=1;strokeWidth=3;targetShapes=umlLifeline;strokeColor=#007FFF;" parent="1" vertex="1">
          <mxGeometry x="-70" y="40" width="10" height="11" as="geometry" />
        </mxCell>
        <mxCell id="O6KozVIABjtlEsWUxaVl-3" value="" style="shape=umlDestroy;whiteSpace=wrap;html=1;strokeWidth=3;targetShapes=umlLifeline;strokeColor=#007FFF;" parent="1" vertex="1">
          <mxGeometry x="790" y="40" width="10" height="11" as="geometry" />
        </mxCell>
        <mxCell id="O6KozVIABjtlEsWUxaVl-6" value="" style="shape=umlDestroy;whiteSpace=wrap;html=1;strokeWidth=3;targetShapes=umlLifeline;strokeColor=#007FFF;" parent="1" vertex="1">
          <mxGeometry x="1630" y="40" width="10" height="11" as="geometry" />
        </mxCell>
        <mxCell id="O6KozVIABjtlEsWUxaVl-12" value="Hủy" style="strokeWidth=1;shadow=0;dashed=0;align=center;html=1;shape=mxgraph.mockup.buttons.button;strokeColor=#666666;fontColor=#ffffff;mainText=;buttonStyle=round;fontSize=17;fontStyle=1;fillColor=#006633;whiteSpace=wrap;" parent="1" vertex="1">
          <mxGeometry x="1370" y="346.5" width="180" height="31" as="geometry" />
        </mxCell>
        <mxCell id="A3TY6-_EPjsaEJLGYLJC-6" value="" style="strokeWidth=1;shadow=0;dashed=0;align=center;html=1;shape=mxgraph.mockup.rrect;rSize=10;strokeColor=#666666;" vertex="1" parent="1">
          <mxGeometry x="1490" y="420" width="120" height="200" as="geometry" />
        </mxCell>
        <mxCell id="A3TY6-_EPjsaEJLGYLJC-7" value="Evan" style="strokeColor=inherit;fillColor=inherit;gradientColor=inherit;strokeWidth=1;shadow=0;dashed=0;align=center;html=1;shape=mxgraph.mockup.rrect;rSize=0;fontSize=17;fontColor=#666666;fontStyle=1;resizeWidth=1;whiteSpace=wrap;" vertex="1" parent="A3TY6-_EPjsaEJLGYLJC-6">
          <mxGeometry width="120" height="50" relative="1" as="geometry">
            <mxPoint y="50" as="offset" />
          </mxGeometry>
        </mxCell>
        <mxCell id="A3TY6-_EPjsaEJLGYLJC-8" value="Jack" style="strokeColor=inherit;fillColor=inherit;gradientColor=inherit;strokeWidth=1;shadow=0;dashed=0;align=center;html=1;shape=mxgraph.mockup.rrect;rSize=0;fontSize=17;fontColor=#666666;fontStyle=1;resizeWidth=1;whiteSpace=wrap;" vertex="1" parent="A3TY6-_EPjsaEJLGYLJC-6">
          <mxGeometry width="120" height="50" relative="1" as="geometry">
            <mxPoint y="100" as="offset" />
          </mxGeometry>
        </mxCell>
        <mxCell id="A3TY6-_EPjsaEJLGYLJC-9" value="David" style="strokeColor=inherit;fillColor=inherit;gradientColor=inherit;strokeWidth=1;shadow=0;dashed=0;align=center;html=1;shape=mxgraph.mockup.bottomButton;rSize=10;fontSize=17;fontColor=#666666;fontStyle=1;resizeWidth=1;whiteSpace=wrap;" vertex="1" parent="A3TY6-_EPjsaEJLGYLJC-6">
          <mxGeometry y="1" width="120" height="50" relative="1" as="geometry">
            <mxPoint y="-50" as="offset" />
          </mxGeometry>
        </mxCell>
        <mxCell id="A3TY6-_EPjsaEJLGYLJC-10" value="Adam" style="strokeWidth=1;shadow=0;dashed=0;align=center;html=1;shape=mxgraph.mockup.topButton;rSize=10;fontSize=17;fontColor=#ffffff;fontStyle=1;fillColor=#006633;strokeColor=#008cff;resizeWidth=1;whiteSpace=wrap;" vertex="1" parent="A3TY6-_EPjsaEJLGYLJC-6">
          <mxGeometry width="120" height="50" relative="1" as="geometry" />
        </mxCell>
        <mxCell id="A3TY6-_EPjsaEJLGYLJC-13" value="" style="strokeWidth=2;html=1;shape=mxgraph.flowchart.annotation_1;align=left;pointerEvents=1;rotation=-180;" vertex="1" parent="1">
          <mxGeometry x="1610" y="250" width="70" height="270" as="geometry" />
        </mxCell>
      </root>
    </mxGraphModel>
  </diagram>
</mxfile>
